<?xml version="1.0" encoding="UTF-8"?>
<svg width="44px" height="44px" viewBox="0 0 44 44" version="1.1" xmlns="http://www.w3.org/2000/svg" xmlns:xlink="http://www.w3.org/1999/xlink">
    <!-- Generator: Sketch 46.1 (44463) - http://www.bohemiancoding.com/sketch -->
    <title>add-user</title>
    <desc>Created with Sketch.</desc>
    <defs></defs>
    <g id="Page-1" stroke="none" stroke-width="1" fill="none" fill-rule="evenodd" opacity="0.85">
        <g id="video-call" transform="translate(-322.000000, -704.000000)">
            <g id="Group-4" transform="translate(265.000000, 703.000000)">
                <g id="add-user" transform="translate(58.000000, 1.750000)">
                    <g id="Group-2">
                        <circle id="Oval" stroke="#FFFFFF" cx="21" cy="21" r="21"></circle>
                        <path d="M19.7786539,20.7943425 C18.2842202,20.7687961 17.0754121,20.2425404 16.1879327,19.2360125 C14.2242571,17.0185857 14.5506863,13.2172826 14.5863895,12.8545238 C14.7139009,10.1108413 16.0196177,8.80797528 17.0907135,8.19997114 C18.1567088,7.59196701 19.2686083,7.5 19.8347589,7.5 L19.8653617,7.5 L19.8857635,7.5 L19.9214667,7.5 C20.9517588,7.52043711 21.8749414,7.76568248 22.6655121,8.22040826 C23.726407,8.82841239 25.0117219,10.1312784 25.1392333,12.8545238 C25.1749365,13.2172826 25.5013657,17.0185857 23.5376901,19.2360125 C22.6451103,20.2425404 21.4363022,20.7687961 19.9418685,20.7943425 L19.8908639,20.7943425 L19.8602612,20.7943425 L19.7786539,20.7943425 Z M30.5580476,27.4264865 C30.563148,27.692169 30.5682485,29.0563463 30.3132257,29.7358804 C30.2622211,29.8687216 30.1653124,29.9811257 30.0480019,30.0577649 C29.8949883,30.1548412 26.2277603,32.5 20.0919115,32.5 C13.9560627,32.5 10.2888347,30.1599505 10.135821,30.0577649 C10.01341,29.9811257 9.92160183,29.8687216 9.87059727,29.7358804 C9.60027309,29.0512371 9.60537354,27.6870597 9.610474,27.4060494 C9.61557446,27.3651752 9.61557446,27.324301 9.61557446,27.2783175 C9.64617719,26.2717896 9.71248312,23.9061937 11.9770857,23.1295834 C14.2875923,22.5420164 16.1900625,21.213604 16.2104643,21.1982761 C16.5215921,20.9785772 16.9500305,21.0552163 17.1693501,21.3668823 C17.2808488,21.5253285 18.6661345,22.0242533 20.0919115,22.0228946 C21.4706582,22.0215807 22.8913506,21.5252114 22.9991715,21.3719916 C23.2184911,21.0603256 23.6469294,20.9836864 23.9580573,21.2033854 C23.9784591,21.2187132 25.8911301,22.5471256 28.2424405,23.1500205 C30.4560384,23.9061937 30.5223444,26.2717896 30.5529471,27.2834267 C30.5529471,27.3294102 30.5580476,27.3702845 30.5580476,27.4264865 Z" id="Combined-Shape" fill="#FFFFFF" fill-rule="nonzero"></path>
                        <polygon id="+" fill="#FFFFFF" points="31.649263 16.0556364 35.5235886 16.0556364 35.5235886 17.7256044 31.649263 17.7256044 31.649263 22.1152344 29.8743256 22.1152344 29.8743256 17.7256044 26 17.7256044 26 16.0556364 29.8743256 16.0556364 29.8743256 12 31.649263 12"></polygon>
                    </g>
                </g>
            </g>
        </g>
    </g>
</svg>