<?xml version="1.0" encoding="UTF-8"?>
<svg width="11px" height="12px" viewBox="0 0 11 12" version="1.1" xmlns="http://www.w3.org/2000/svg" xmlns:xlink="http://www.w3.org/1999/xlink">
    <!-- Generator: Sketch 48.1 (47250) - http://www.bohemiancoding.com/sketch -->
    <title>delete-post</title>
    <desc>Created with Sketch.</desc>
    <defs></defs>
    <g id="post-copy-6" stroke="none" stroke-width="1" fill="none" fill-rule="evenodd" transform="translate(-254.000000, -7.000000)">
        <path d="M258,11.75 L258,16.25 C258,16.3229167 257.976562,16.3828125 257.929688,16.4296875 C257.882812,16.4765625 257.822917,16.5 257.75,16.5 L257.25,16.5 C257.177083,16.5 257.117188,16.4765625 257.070312,16.4296875 C257.023438,16.3828125 257,16.3229167 257,16.25 L257,11.75 C257,11.6770833 257.023438,11.6171875 257.070312,11.5703125 C257.117188,11.5234375 257.177083,11.5 257.25,11.5 L257.75,11.5 C257.822917,11.5 257.882812,11.5234375 257.929688,11.5703125 C257.976562,11.6171875 258,11.6770833 258,11.75 Z M260,11.75 L260,16.25 C260,16.3229167 259.976562,16.3828125 259.929688,16.4296875 C259.882812,16.4765625 259.822917,16.5 259.75,16.5 L259.25,16.5 C259.177083,16.5 259.117188,16.4765625 259.070312,16.4296875 C259.023438,16.3828125 259,16.3229167 259,16.25 L259,11.75 C259,11.6770833 259.023438,11.6171875 259.070312,11.5703125 C259.117188,11.5234375 259.177083,11.5 259.25,11.5 L259.75,11.5 C259.822917,11.5 259.882812,11.5234375 259.929688,11.5703125 C259.976562,11.6171875 260,11.6770833 260,11.75 Z M262,11.75 L262,16.25 C262,16.3229167 261.976562,16.3828125 261.929688,16.4296875 C261.882812,16.4765625 261.822917,16.5 261.75,16.5 L261.25,16.5 C261.177083,16.5 261.117188,16.4765625 261.070312,16.4296875 C261.023438,16.3828125 261,16.3229167 261,16.25 L261,11.75 C261,11.6770833 261.023438,11.6171875 261.070312,11.5703125 C261.117188,11.5234375 261.177083,11.5 261.25,11.5 L261.75,11.5 C261.822917,11.5 261.882812,11.5234375 261.929688,11.5703125 C261.976562,11.6171875 262,11.6770833 262,11.75 Z M263,17.40625 L263,10 L256,10 L256,17.40625 C256,17.5208333 256.018229,17.6263021 256.054688,17.7226562 C256.091146,17.8190104 256.128906,17.8893229 256.167969,17.9335938 C256.207031,17.9778646 256.234375,18 256.25,18 L262.75,18 C262.765625,18 262.792969,17.9778646 262.832031,17.9335938 C262.871094,17.8893229 262.908854,17.8190104 262.945312,17.7226562 C262.981771,17.6263021 263,17.5208333 263,17.40625 Z M257.75,9 L261.25,9 L260.875,8.0859375 C260.838542,8.0390625 260.794271,8.01041667 260.742188,8 L258.265625,8 C258.213542,8.01041667 258.169271,8.0390625 258.132812,8.0859375 L257.75,9 Z M265,9.25 L265,9.75 C265,9.82291667 264.976562,9.8828125 264.929688,9.9296875 C264.882812,9.9765625 264.822917,10 264.75,10 L264,10 L264,17.40625 C264,17.8385417 263.877604,18.2122396 263.632812,18.5273438 C263.388021,18.8424479 263.09375,19 262.75,19 L256.25,19 C255.90625,19 255.611979,18.8476562 255.367188,18.5429688 C255.122396,18.2382812 255,17.8697917 255,17.4375 L255,10 L254.25,10 C254.177083,10 254.117188,9.9765625 254.070312,9.9296875 C254.023438,9.8828125 254,9.82291667 254,9.75 L254,9.25 C254,9.17708333 254.023438,9.1171875 254.070312,9.0703125 C254.117188,9.0234375 254.177083,9 254.25,9 L256.664062,9 L257.210938,7.6953125 C257.289062,7.50260417 257.429688,7.33854167 257.632812,7.203125 C257.835938,7.06770833 258.041667,7 258.25,7 L260.75,7 C260.958333,7 261.164062,7.06770833 261.367188,7.203125 C261.570312,7.33854167 261.710938,7.50260417 261.789062,7.6953125 L262.335938,9 L264.75,9 C264.822917,9 264.882812,9.0234375 264.929688,9.0703125 C264.976562,9.1171875 265,9.17708333 265,9.25 Z" id="delete-post" fill="#CDC7C7" fill-rule="nonzero"></path>
    </g>
</svg>