<?xml version="1.0" encoding="UTF-8"?>
<svg width="12px" height="12px" viewBox="0 0 12 12" version="1.1" xmlns="http://www.w3.org/2000/svg" xmlns:xlink="http://www.w3.org/1999/xlink">
    <!-- Generator: Sketch 46.1 (44463) - http://www.bohemiancoding.com/sketch -->
    <title>edit</title>
    <desc>Created with Sketch.</desc>
    <defs></defs>
    <g id="Page-1" stroke="none" stroke-width="1" fill="none" fill-rule="evenodd">
        <g id="group-chat" transform="translate(-187.000000, -136.000000)" fill-rule="nonzero" fill="#0374BC">
            <g id="edit" transform="translate(187.000000, 136.000000)">
                <path d="M11.2227229,0.776730062 C10.1897625,-0.258910021 8.50992352,-0.258910021 7.47696315,0.776730062 L0.609310818,7.64264024 C0.555617333,7.6963401 0.52237851,7.76538277 0.512151179,7.83953972 L0.00334149402,11.6087582 C-0.0119995015,11.7161579 0.0263529873,11.8235576 0.100501132,11.8977146 C0.164421947,11.961643 0.253911088,12 0.343400228,12 C0.358741224,12 0.374082219,12 0.389423215,11.9974429 L2.65989055,11.6905865 C2.84909617,11.6650152 2.98205146,11.4911299 2.95648313,11.3019019 C2.93091481,11.1126738 2.75705019,10.9797027 2.56784458,11.0052741 L0.747379777,11.2507591 L1.10277951,8.62202333 L3.86927237,11.3888445 C3.93319318,11.4527729 4.02268232,11.4911299 4.11217146,11.4911299 C4.2016606,11.4911299 4.29114975,11.45533 4.35507056,11.3888445 L11.2227229,4.52293431 C11.7238621,4.02173566 12,3.35688029 12,2.64855362 C12,1.94022695 11.7238621,1.27537158 11.2227229,0.776730062 Z M7.60991845,1.62058494 L8.76304994,2.77385328 L2.49625327,9.04139364 L1.34312177,7.8881253 L7.60991845,1.62058494 Z M4.1147283,10.6575036 L2.98716512,9.52980662 L9.2539618,3.26226626 L10.381525,4.38996324 L4.1147283,10.6575036 Z M10.8622095,3.89643599 L8.10338713,1.13728624 C8.4536732,0.848329871 8.89089157,0.689787438 9.35112144,0.689787438 C9.87527212,0.689787438 10.366184,0.894358319 10.7369247,1.2625859 C11.1076654,1.63081349 11.3096552,2.12434074 11.3096552,2.64855362 C11.3096552,3.11139524 11.1511316,3.54610836 10.8622095,3.89643599 Z" id="Shape"></path>
            </g>
        </g>
    </g>
</svg>