<?xml version="1.0" encoding="UTF-8"?>
<svg width="18px" height="18px" viewBox="0 0 18 18" version="1.1" xmlns="http://www.w3.org/2000/svg" xmlns:xlink="http://www.w3.org/1999/xlink">
    <!-- Generator: Sketch 43.2 (39069) - http://www.bohemiancoding.com/sketch -->
    <title>Group 3</title>
    <desc>Created with Sketch.</desc>
    <defs></defs>
    <g id="Symbols" stroke="none" stroke-width="1" fill="none" fill-rule="evenodd">
        <g id="icon-transfer-copy-4" transform="translate(-1.000000, 0.000000)" fill-rule="nonzero">
            <g id="Group-3" transform="translate(1.000000, 0.000000)">
                <path d="M16.1999969,12.4662943 C16.132516,12.4662996 16.0588865,12.4663054 15.9795957,12.4663117 C13.6914848,12.466495 6.68900904,12.4671276 6.68024598,12.4680049 C6.55596562,12.4763495 6.43398348,12.5269417 6.33896116,12.6208301 L3.32613482,15.5990874 C3.32613482,15.5990874 3.3252067,12.9606019 3.32348304,12.9469272 C3.29939598,12.6775388 3.07081205,12.4662573 2.79206518,12.4662573 L1.27422723,12.4662573 C1.16028884,12.4662573 1.06765312,12.3746408 1.06765312,12.2620534 L1.06765312,3.25956311 C1.06765312,3.14693204 1.16033304,3.05535922 1.27422723,3.05535922 C1.27422723,3.05535922 2.07180946,3.05535922 6,3.05535922 C7,3.05535922 7,2 6,2 L1.27422723,2 C0.571592411,2 0,2.56503398 0,3.25956311 L0,12.2620097 C0,12.9565388 0.571592411,13.5216165 1.27422723,13.5216165 L2.25852589,13.5216165 L2.25852589,16.8730243 C2.25852589,17.0864029 2.38855179,17.2788544 2.58805446,17.3605534 C2.65408393,17.3876408 2.72347232,17.4007476 2.79224196,17.4007476 C2.93119554,17.4007476 3.06767411,17.3470971 3.16981205,17.2461748 L6.93760179,13.5216602 L16.6935375,13.5216602 C16.9513378,13.5216602 17.1664267,13.3410499 17.2163936,13.1008353 C17.2415127,13.0386095 17.2553562,12.9705157 17.2553562,12.8991533 L17.2553562,11.183806 C17.2553562,10.8890158 17.019128,10.6500015 16.7276766,10.6500015 C16.4362251,10.6500015 16.1999969,10.88906 16.1999969,11.183806 L16.1999969,12.4662943 Z" id="Combined-Shape" fill="#AAAAAA"></path>
                <path d="M13.2491518,9 L3.53380446,9 C3.23901429,9 3,9.23622816 3,9.52767961 C3,9.81913107 3.23905848,10.0553592 3.53380446,10.0553592 L13.2491518,10.0553592 C13.543942,10.0553592 13.7829562,9.81913107 13.7829562,9.52767961 C13.7829562,9.23622816 13.543942,9 13.2491518,9 Z" id="Shape" fill="#AAAAAA"></path>
                <path d="M18.0431502,3.65779696 L8.32780291,3.65779696 C8.03301274,3.65779696 7.79399845,3.89402512 7.79399845,4.18547657 C7.79399845,4.47692803 8.03305693,4.71315619 8.32780291,4.71315619 L18.0431502,4.71315619 C18.3379404,4.71315619 18.5769547,4.47692803 18.5769547,4.18547657 C18.5769547,3.89402512 18.3379404,3.65779696 18.0431502,3.65779696 Z" id="Shape-Copy-13" fill="#E34256" transform="translate(13.185477, 4.185477) rotate(45.000000) translate(-13.185477, -4.185477) "></path>
                <path d="M18.0431502,3.65779696 L8.32780291,3.65779696 C8.03301274,3.65779696 7.79399845,3.89402512 7.79399845,4.18547657 C7.79399845,4.47692803 8.03305693,4.71315619 8.32780291,4.71315619 L18.0431502,4.71315619 C18.3379404,4.71315619 18.5769547,4.47692803 18.5769547,4.18547657 C18.5769547,3.89402512 18.3379404,3.65779696 18.0431502,3.65779696 Z" id="Shape-Copy-14" fill="#E34256" transform="translate(13.185477, 4.185477) rotate(-45.000000) translate(-13.185477, -4.185477) "></path>
                <path d="M6.24915179,5 L3.53380446,5 C3.23901429,5 3,5.23622816 3,5.52767961 C3,5.81913107 3.23905848,6.05535922 3.53380446,6.05535922 L6.24915179,6.05535922 C6.54394196,6.05535922 6.78295625,5.81913107 6.78295625,5.52767961 C6.78295625,5.23622816 6.54394196,5 6.24915179,5 Z" id="Shape-Copy-9" fill="#AAAAAA"></path>
            </g>
        </g>
    </g>
</svg>