<?xml version="1.0" encoding="UTF-8"?>
<svg width="14px" height="14px" viewBox="0 0 14 14" version="1.1" xmlns="http://www.w3.org/2000/svg" xmlns:xlink="http://www.w3.org/1999/xlink">
    <!-- Generator: Sketch 43.2 (39069) - http://www.bohemiancoding.com/sketch -->
    <title>favourite marked copy 2</title>
    <desc>Created with Sketch.</desc>
    <defs></defs>
    <g id="Page-1" stroke="none" stroke-width="1" fill="none" fill-rule="evenodd">
        <g id="group-chat" transform="translate(-855.000000, -201.000000)" fill-rule="nonzero" fill="#F1C533">
            <g id="favourite-marked-copy-2" transform="translate(855.000000, 201.000000)">
                <path d="M14,5.17427885 C14,5.29767628 13.9270833,5.43229167 13.78125,5.578125 L10.7271635,8.55649038 L11.4507212,12.7632212 C11.4563301,12.802484 11.4591346,12.8585737 11.4591346,12.9314904 C11.4591346,13.2119391 11.3441506,13.3521635 11.1141827,13.3521635 C11.0076122,13.3521635 10.8954327,13.3185096 10.7776442,13.2512019 L7,11.265625 L3.22235577,13.2512019 C3.09895833,13.3185096 2.98677885,13.3521635 2.88581731,13.3521635 C2.76802885,13.3521635 2.6796875,13.3114984 2.62079327,13.2301683 C2.56189904,13.1488381 2.53245192,13.0492788 2.53245192,12.9314904 C2.53245192,12.8978365 2.5380609,12.8417468 2.54927885,12.7632212 L3.27283654,8.55649038 L0.210336538,5.578125 C0.0701121795,5.42668269 0,5.29206731 0,5.17427885 C0,4.96674679 0.157051282,4.83774038 0.471153846,4.78725962 L4.69471154,4.17307692 L6.58774038,0.344951923 C6.6943109,0.114983974 6.83173077,0 7,0 C7.16826923,0 7.3056891,0.114983974 7.41225962,0.344951923 L9.30528846,4.17307692 L13.5288462,4.78725962 C13.8429487,4.83774038 14,4.96674679 14,5.17427885 Z" id="Shape"></path>
            </g>
        </g>
    </g>
</svg>