<?xml version="1.0" encoding="UTF-8"?>
<svg width="14px" height="14px" viewBox="0 0 14 14" version="1.1" xmlns="http://www.w3.org/2000/svg" xmlns:xlink="http://www.w3.org/1999/xlink">
    <!-- Generator: Sketch 43.2 (39069) - http://www.bohemiancoding.com/sketch -->
    <title>favourite marked</title>
    <desc>Created with Sketch.</desc>
    <defs></defs>
    <g id="Page-1" stroke="none" stroke-width="1" fill="none" fill-rule="evenodd">
        <g id="group-chat" transform="translate(-838.000000, -230.000000)" fill-rule="nonzero" fill="#AAAAAA">
            <g id="favourite-marked" transform="translate(838.000000, 230.000000)">
                <path d="M9.44723752,8.07626638 L11.9897658,5.60851832 L8.48340326,5.09336552 L6.91301813,1.9193596 L5.342633,5.09336552 L1.83627044,5.60851832 L4.37879875,8.07626638 L3.77224788,11.57432 L6.91301813,9.92084573 L10.0454795,11.57432 L9.44723752,8.07626638 Z M13.8260363,5.10998336 C13.8260363,5.23184746 13.7540257,5.36479011 13.6100045,5.50881133 L10.5938679,8.4501676 L11.3084347,12.6046256 C11.313974,12.6434006 11.3167436,12.6987933 11.3167436,12.7708039 C11.3167436,13.0477678 11.2031884,13.1862497 10.9760781,13.1862497 C10.8708318,13.1862497 10.7600463,13.1530141 10.6437214,13.0865427 L6.91301813,11.1256386 L3.18231484,13.0865427 C3.06045074,13.1530141 2.94966519,13.1862497 2.8499582,13.1862497 C2.73363337,13.1862497 2.64638975,13.14609 2.58822734,13.0657705 C2.53006493,12.9854509 2.50098372,12.8871288 2.50098372,12.7708039 C2.50098372,12.7375683 2.506523,12.6821755 2.51760156,12.6046256 L3.23216833,8.4501676 L0.207722901,5.50881133 C0.0692409669,5.35925084 0,5.22630818 0,5.10998336 C0,4.90503009 0.155099766,4.77762671 0.465299297,4.72777322 L4.63637514,4.12122235 L6.50588125,0.340665557 C6.61112752,0.113555186 6.74683981,0 6.91301813,0 C7.07919645,0 7.21490875,0.113555186 7.32015502,0.340665557 L9.18966112,4.12122235 L13.360737,4.72777322 C13.6709365,4.77762671 13.8260363,4.90503009 13.8260363,5.10998336 Z" id="Shape"></path>
            </g>
        </g>
    </g>
</svg>