<?xml version="1.0" encoding="UTF-8"?>
<svg width="27px" height="21px" viewBox="0 0 26 21" version="1.1" xmlns="http://www.w3.org/2000/svg" xmlns:xlink="http://www.w3.org/1999/xlink">
    <!-- Generator: Sketch 43.2 (39069) - http://www.bohemiancoding.com/sketch -->
    <title>icon-groups-active</title>
    <desc>Created with Sketch.</desc>
    <defs></defs>
    <g id="Page-1" stroke="none" stroke-width="1" fill="none" fill-rule="evenodd">
        <g id="web-icons" transform="translate(-225.000000, -168.000000)" fill-rule="nonzero" fill="#53718A">
            <g id="icon-groups-active" transform="translate(225.000000, 168.000000)">
                <path d="M12.8412291,11.3130435 C11.5695157,11.2913043 10.5408602,10.8434783 9.78564477,9.98695652 C8.11462209,8.1 8.39240248,4.86521739 8.42278471,4.55652174 C8.53129268,2.22173913 9.64241425,1.11304348 10.5538812,0.595652174 C11.4610078,0.0782608696 12.4071972,0 12.8889726,0 L12.9150145,0 L12.9323758,0 L12.962758,0 C13.8395024,0.0173913043 14.6251001,0.226086957 15.2978495,0.613043478 C16.2006357,1.13043478 17.294396,2.23913043 17.402904,4.55652174 C17.4332862,4.86521739 17.7110666,8.1 16.040044,9.98695652 C15.2804882,10.8434783 14.2518327,11.2913043 12.9801193,11.3130435 L12.9367161,11.3130435 L12.9106742,11.3130435 L12.8412291,11.3130435 Z M21.830029,16.6782609 C21.8343694,16.9043478 21.8387097,18.0652174 21.6216937,18.6434783 C21.5782906,18.7565217 21.4958245,18.8521739 21.3959972,18.9173913 C21.2657876,19 18.1450985,20.9956522 12.9236952,20.9956522 C7.70229181,20.9956522 4.5816027,19.0043478 4.45139314,18.9173913 C4.34722549,18.8521739 4.26909976,18.7565217 4.22569657,18.6434783 C3.99565968,18.0608696 4,16.9 4.00434032,16.6608696 C4.00868064,16.626087 4.00868064,16.5913043 4.00868064,16.5521739 C4.03472255,15.6956522 4.09114669,13.6826087 6.01824818,13.0217391 C7.98441253,12.5217391 9.60335139,11.3913043 9.62071266,11.3782609 C9.8854721,11.1913043 10.2500589,11.2565217 10.4366926,11.5217391 C10.5321622,11.6574071 11.7794759,12.3020214 13,12.3000031 C14.16548,12.2980757 15.3065127,11.6556364 15.3976768,11.526087 C15.5843105,11.2608696 15.9488973,11.1956522 16.2136567,11.3826087 C16.231018,11.3956522 17.8586375,12.526087 19.8595244,13.0391304 C21.7432227,13.6826087 21.7996468,15.6956522 21.8256887,16.5565217 C21.8256887,16.5956522 21.830029,16.6304348 21.830029,16.6782609 Z" id="Combined-Shape"></path>
                <path d="M3.01050913,16.2683493 C1.29570698,15.9508754 0.307344535,15.3197935 0.252881311,15.2834219 C0.194524085,15.2468855 0.150756166,15.1932989 0.126440656,15.1299692 C-0.00243155107,14.8035778 -2.75039106e-13,14.1532307 0.00243155107,14.019264 C0.00486310214,13.999778 0.00486310214,13.9802919 0.00486310214,13.9583701 C0.0194524085,13.478526 0.0510625724,12.3507705 1.13067125,11.9805355 C2.23216388,11.7004235 3.13913243,11.0671267 3.14885863,11.0598194 C3.29718325,10.9550818 3.50143354,10.9916182 3.60599023,11.1401994 C3.62679366,11.1697622 4,11.9805355 6,11.6854435 C6.00597807,11.6845615 6.0118947,11.6837214 6.01775025,11.6829231 C6.01190546,11.7791352 6.00906567,11.8845712 6.00962094,12 C6.00962094,12 4.33208856,12.5958878 3.60961942,13.8000031 C3.16598913,14.5393869 3.04094694,15.5773096 3.01050913,16.2683493 Z M5.49698789,10.8378395 C4.78454342,10.8256607 4.20826582,10.5747777 3.78517594,10.0949336 C2.84902877,9.03781513 3.00464804,7.22561198 3.0216689,7.05267324 C3.08245768,5.74467178 3.70493475,5.12355377 4.21556047,4.8336987 C4.72375465,4.54384362 5.25383278,4.5 5.52373495,4.5 L5.53832426,4.5 L5.54805046,4.5 L5.56507132,4.5 C6.05624463,4.50974303 6.49635538,4.62665936 6.87324579,4.84344172 C7.37900841,5.1332968 7.99175928,5.75441481 8.05254806,7.05267324 C8.06956892,7.22561198 8.22518819,9.03781513 7.28904102,10.0949336 C6.86351959,10.5747777 6.28724198,10.8256607 5.57479752,10.8378395 L5.55048201,10.8378395 L5.5358927,10.8378395 L5.49698789,10.8378395 Z" id="Combined-Shape"></path>
                <path d="M20.9362922,16.2683493 C19.22149,15.9508754 18.2331276,15.3197935 18.1786644,15.2834219 C18.1203071,15.2468855 18.0765392,15.1932989 18.0522237,15.1299692 C17.9233515,14.8035778 17.925783,14.1532307 17.9282146,14.019264 C17.9306461,13.999778 17.9306461,13.9802919 17.9306461,13.9583701 C17.9452354,13.478526 17.9768456,12.3507705 19.0564543,11.9805355 C20.1579469,11.7004235 21.0649155,11.0671267 21.0746417,11.0598194 C21.2229663,10.9550818 21.4272166,10.9916182 21.5317733,11.1401994 C21.5525767,11.1697622 21.925783,11.9805355 23.925783,11.6854435 C23.9317611,11.6845615 23.9376777,11.6837214 23.9435333,11.6829231 C23.9376885,11.7791352 23.9348487,11.8845712 23.935404,12 C23.935404,12 22.2578716,12.5958878 21.5354025,13.8000031 C21.0917722,14.5393869 20.96673,15.5773096 20.9362922,16.2683493 Z M23.4227709,10.8378395 C22.7103265,10.8256607 22.1340489,10.5747777 21.710959,10.0949336 C20.7748118,9.03781513 20.9304311,7.22561198 20.9474519,7.05267324 C21.0082407,5.74467178 21.6307178,5.12355377 22.1413435,4.8336987 C22.6495377,4.54384362 23.1796158,4.5 23.449518,4.5 L23.4641073,4.5 L23.4738335,4.5 L23.4908544,4.5 C23.9820277,4.50974303 24.4221384,4.62665936 24.7990288,4.84344172 C25.3047915,5.1332968 25.9175423,5.75441481 25.9783311,7.05267324 C25.995352,7.22561198 26.1509712,9.03781513 25.2148241,10.0949336 C24.7893026,10.5747777 24.213025,10.8256607 23.5005806,10.8378395 L23.4762651,10.8378395 L23.4616757,10.8378395 L23.4227709,10.8378395 Z" id="Combined-Shape" transform="translate(21.962892, 10.384175) scale(-1, 1) translate(-21.962892, -10.384175) "></path>
            </g>
        </g>
    </g>
</svg>