<?xml version="1.0" encoding="UTF-8"?>
<svg width="17px" height="17px" viewBox="0 0 17 17" version="1.1" xmlns="http://www.w3.org/2000/svg" xmlns:xlink="http://www.w3.org/1999/xlink">
    <!-- Generator: Sketch 43.2 (39069) - http://www.bohemiancoding.com/sketch -->
    <title>Group 4</title>
    <desc>Created with Sketch.</desc>
    <defs></defs>
    <g id="Symbols" stroke="none" stroke-width="1" fill="none" fill-rule="evenodd">
        <g id="icon-collapse" transform="translate(-1.000000, 0.000000)" fill-rule="nonzero">
            <g id="Group-4" transform="translate(-1.000000, -2.000000)">
                <path d="M14.4049679,10.564657 C14.308507,10.5141028 14.2331159,10.4382879 14.1922188,10.3483835 L11.7357073,7.89187191 C11.5272904,7.68345503 11.525289,7.34737663 11.7313763,7.14128933 C11.9374636,6.93520202 12.2735108,6.93717212 12.4819589,7.14562025 L14.1582535,8.82191488 L14.1582535,1.20696108 C14.1582535,0.964674189 14.3944817,0.768163494 14.6859332,0.768163494 C14.9773846,0.768163494 15.2136128,0.964637858 15.2136128,1.20696108 L15.2136128,8.87488509 L16.9428776,7.14562025 C17.1513257,6.93717212 17.4873729,6.93520202 17.6934602,7.14128933 C17.8995475,7.34737663 17.8975462,7.68345503 17.6891293,7.89187191 L15.1619003,10.4191009 C15.1424374,10.4489336 15.1196231,10.4771981 15.0934541,10.5033671 C14.9887309,10.6080903 14.8504581,10.6590978 14.7124183,10.6565845 C14.6047302,10.6585452 14.4969003,10.6279335 14.4049679,10.564657 Z" id="Combined-Shape-Copy" fill="#333333" transform="translate(14.712418, 5.712418) rotate(45.000000) translate(-14.712418, -5.712418) "></path>
                <path d="M5.4049679,19.564657 C5.30850698,19.5141028 5.23311587,19.4382879 5.19221883,19.3483835 L2.73570725,16.8918719 C2.52729037,16.683455 2.52528902,16.3473766 2.73137633,16.1412893 C2.93746363,15.935202 3.27351078,15.9371721 3.48195891,16.1456203 L5.15825355,17.8219149 L5.15825355,10.2069611 C5.15825355,9.96467419 5.3944817,9.76816349 5.68593316,9.76816349 C5.97738461,9.76816349 6.21361277,9.96463786 6.21361277,10.2069611 L6.21361277,17.8748851 L7.94287761,16.1456203 C8.15132575,15.9371721 8.4873729,15.935202 8.6934602,16.1412893 C8.8995475,16.3473766 8.89754616,16.683455 8.68912928,16.8918719 L6.16190027,19.4191009 C6.14243744,19.4489336 6.11962313,19.4771981 6.0934541,19.5033671 C5.98873093,19.6080903 5.85045812,19.6590978 5.71241826,19.6565845 C5.60473019,19.6585452 5.49690034,19.6279335 5.4049679,19.564657 Z" id="Combined-Shape-Copy-3" fill="#333333" transform="translate(5.712418, 14.712418) scale(-1, -1) rotate(45.000000) translate(-5.712418, -14.712418) "></path>
                <path d="M8.3609428,9.50822768 C8.34147997,9.53806032 8.31866565,9.56632483 8.29249662,9.59249386 C8.18777345,9.69721703 8.04950064,9.74822453 7.91146079,9.74571128 C7.77342094,9.74822453 7.63514813,9.69721703 7.53042495,9.59249386 C7.50425592,9.56632483 7.48144161,9.53806032 7.46197878,9.50822768 L4.93474978,6.98099868 C4.72633289,6.77258179 4.72433155,6.43650339 4.93041885,6.23041609 C5.13650615,6.02432879 5.4725533,6.02629888 5.68100144,6.23474701 L7.91146079,8.46520636 L10.1419201,6.23474701 C10.3503683,6.02629888 10.6864154,6.02432879 10.8925027,6.23041609 C11.09859,6.43650339 11.0965887,6.77258179 10.8881718,6.98099868 L8.3609428,9.50822768 Z" id="Combined-Shape-Copy-5" fill="#AAAAAA" transform="translate(7.911461, 7.911461) scale(-1, 1) rotate(45.000000) translate(-7.911461, -7.911461) "></path>
                <path d="M12.9628577,14.1101426 C12.9433949,14.1399753 12.9205806,14.1682398 12.8944116,14.1944088 C12.7896884,14.299132 12.6514156,14.3501395 12.5133757,14.3476262 C12.3753359,14.3501395 12.2370631,14.299132 12.1323399,14.1944088 C12.1061709,14.1682398 12.0833566,14.1399753 12.0638937,14.1101426 L9.53666473,11.5829136 C9.32824784,11.3744967 9.3262465,11.0384183 9.5323338,10.832331 C9.7384211,10.6262437 10.0744683,10.6282138 10.2829164,10.836662 L12.5133757,13.0671213 L14.7438351,10.836662 C14.9522832,10.6282138 15.2883304,10.6262437 15.4944177,10.832331 C15.700505,11.0384183 15.6985036,11.3744967 15.4900868,11.5829136 L12.9628577,14.1101426 Z" id="Combined-Shape-Copy-4" fill="#AAAAAA" transform="translate(12.513376, 12.513376) scale(1, -1) rotate(45.000000) translate(-12.513376, -12.513376) "></path>
            </g>
        </g>
    </g>
</svg>