<?xml version="1.0" encoding="UTF-8"?>
<svg width="18px" height="16px" viewBox="0 0 18 16" version="1.1" xmlns="http://www.w3.org/2000/svg" xmlns:xlink="http://www.w3.org/1999/xlink">
    <!-- Generator: Sketch 43.2 (39069) - http://www.bohemiancoding.com/sketch -->
    <title>Group</title>
    <desc>Created with Sketch.</desc>
    <defs></defs>
    <g id="Symbols" stroke="none" stroke-width="1" fill="none" fill-rule="evenodd">
        <g id="icon-download-copy" transform="translate(-1.000000, -1.000000)" fill-rule="nonzero">
            <g id="Group" transform="translate(1.000000, 1.000000)">
                <path d="M16.4538884,0 L1.27422723,0 C0.571592411,0 0,0.565033981 0,1.25956311 L0,10.2620097 C0,10.9565388 0.571592411,11.5216165 1.27422723,11.5216165 L2.25852589,11.5216165 L2.25852589,14.8730243 C2.25852589,15.0864029 2.38855179,15.2788544 2.58805446,15.3605534 C2.65408393,15.3876408 2.72347232,15.4007476 2.79224196,15.4007476 C2.93119554,15.4007476 3.06767411,15.3470971 3.16981205,15.2461748 L6.93760179,11.5216602 L7.6935375,11.5216602 C7.98837187,11.5216602 8.22734196,11.285432 8.22734196,10.9939806 C8.22734196,10.7024854 7.98828348,10.4662573 7.6935375,10.4662573 C7.6935375,10.4662573 6.69072054,10.4669563 6.68024598,10.4680049 C6.55596562,10.4763495 6.43398348,10.5269417 6.33896116,10.6208301 L3.32613482,13.5990874 C3.32613482,13.5990874 3.3252067,10.9606019 3.32348304,10.9469272 C3.29939598,10.6775388 3.07081205,10.4662573 2.79206518,10.4662573 L1.27422723,10.4662573 C1.16028884,10.4662573 1.06765312,10.3746408 1.06765312,10.2620534 L1.06765312,1.25956311 C1.06765312,1.14693204 1.16033304,1.05535922 1.27422723,1.05535922 L16.4538884,1.05535922 C16.5678268,1.05535922 16.6604625,1.14697573 16.6604625,1.25956311 L16.6604625,7.71342233 C16.6604625,8.00487379 16.899521,8.24110194 17.194267,8.24110194 C17.4890129,8.24110194 17.7280714,8.00487379 17.7280714,7.71342233 L17.7280714,1.25956311 C17.7280714,0.565033981 17.156479,0 16.4538884,0 Z" id="Shape-Copy-5" fill="#AAAAAA"></path>
                <path d="M10.2491518,3 L3.53380446,3 C3.23901429,3 3,3.23622816 3,3.52767961 C3,3.81913107 3.23905848,4.05535922 3.53380446,4.05535922 L10.2491518,4.05535922 C10.543942,4.05535922 10.7829562,3.81913107 10.7829562,3.52767961 C10.7829562,3.23622816 10.543942,3 10.2491518,3 Z" id="Shape-Copy-6" fill="#AAAAAA"></path>
                <path d="M12.8268743,12.7964935 C12.7304133,12.7459393 12.6550222,12.6701244 12.6141252,12.58022 L10.1576136,10.1237084 C9.94919672,9.91529154 9.94719537,9.57921313 10.1532827,9.37312583 C10.35937,9.16703853 10.6954171,9.16900862 10.9038653,9.37745676 L12.5801599,11.0537514 L12.5801599,3.43879759 C12.5801599,3.19651069 12.8163881,3 13.1078395,3 C13.399291,3 13.6355191,3.19647436 13.6355191,3.43879759 L13.6355191,11.1067216 L15.364784,9.37745676 C15.5732321,9.16900862 15.9092792,9.16703853 16.1153666,9.37312583 C16.3214539,9.57921313 16.3194525,9.91529154 16.1110356,10.1237084 L13.5838066,12.6509374 C13.5643438,12.6807701 13.5415295,12.7090346 13.5153604,12.7352036 C13.4106373,12.8399268 13.2723645,12.8909343 13.1343246,12.888421 C13.0266365,12.8903817 12.9188067,12.85977 12.8268743,12.7964935 Z" id="Combined-Shape-Copy" fill="#15B65A"></path>
                <path d="M7.22089152,7 L3.53380446,7 C3.23901429,7 3,7.23622816 3,7.52767961 C3,7.81913107 3.23905848,8.05535922 3.53380446,8.05535922 L7.22089152,8.05535922 C7.51572589,8.05535922 7.75469598,7.81913107 7.75469598,7.52767961 C7.75469598,7.23622816 7.5156817,7 7.22089152,7 Z" id="Shape-Copy-7" fill="#AAAAAA"></path>
                <path d="M16.2208915,14 L9.53380446,14 C9.23901429,14 9,14.2362282 9,14.5276796 C9,14.8191311 9.23905848,15.0553592 9.53380446,15.0553592 L16.2208915,15.0553592 C16.5157259,15.0553592 16.754696,14.8191311 16.754696,14.5276796 C16.754696,14.2362282 16.5156817,14 16.2208915,14 Z" id="Shape-Copy-8" fill="#15B65A"></path>
            </g>
        </g>
    </g>
</svg>