<?xml version="1.0" encoding="UTF-8"?>
<svg width="14px" height="14px" viewBox="0 0 14 15" version="1.1" xmlns="http://www.w3.org/2000/svg" xmlns:xlink="http://www.w3.org/1999/xlink">
    <!-- Generator: Sketch 46.2 (44496) - http://www.bohemiancoding.com/sketch -->
    <title>read-by</title>
    <desc>Created with Sketch.</desc>
    <defs></defs>
    <g id="Symbols" stroke="none" stroke-width="1" fill="none" fill-rule="evenodd">
        <g id="chat-bubble-1-continue" transform="translate(-80.000000, -3.000000)" fill="#AAAAAA">
            <g id="read-by" transform="translate(80.000000, 4.000000)">
                <g id="1498734817__Tick" stroke-width="1" fill-rule="evenodd" transform="translate(2.875000, -0.500000)">
                    <path d="M9.1220874,0.154986956 L2.65359915,6.70760832 L0.884602233,4.78946441 C0.686219054,4.58429584 0.365139699,4.57967335 0.161267207,4.77905077 C-0.0426052848,4.97842818 -0.0547722438,5.30894941 0.133857199,5.52365666 L2.26528276,7.83467342 C2.36085669,7.93798537 2.49264085,7.99753332 2.63116309,8 L2.63979235,8 C2.77537547,7.99988475 2.90550503,7.94499242 3.00222098,7.84711735 L9.84521882,0.914067076 C9.97716845,0.780375812 10.029852,0.584330646 9.98342397,0.399779897 C9.93699599,0.215229147 9.79851003,0.0702104634 9.62013241,0.019350981 C9.44175479,-0.0315085015 9.25058532,0.019517983 9.1186357,0.153209251 L9.1220874,0.154986956 Z" id="Shape" fill-rule="nonzero"></path>
                </g>
                <path d="M12.4249973,9.15800753 C12.3659515,9.15801213 12.3015257,9.15801722 12.2321463,9.15802278 C10.2300492,9.15818317 5.85288291,9.15873668 5.84521523,9.15950425 C5.73646992,9.16680583 5.62973555,9.21107403 5.54659102,9.29322633 L2.91036797,11.8992015 C2.91036797,11.8992015 2.90955586,9.5905267 2.90804766,9.57856129 C2.88697148,9.34284648 2.68696055,9.15797512 2.44305703,9.15797512 L1.11494883,9.15797512 C1.01525273,9.15797512 0.934196484,9.07781068 0.934196484,8.97929672 L0.934196484,1.10211772 C0.934196484,1.00356553 1.01529141,0.92343932 1.11494883,0.92343932 C1.11494883,0.92343932 3.56283327,0.92343932 7,0.92343932 C7.875,0.92343932 7.875,0 7,0 L1.11494883,0 C0.500143359,0 0,0.494404733 0,1.10211772 L0,8.9792585 C0,9.58697148 0.500143359,10.0814144 1.11494883,10.0814144 L1.97621016,10.0814144 L1.97621016,13.0138962 C1.97621016,13.2006025 2.08998281,13.3689976 2.26454766,13.4404842 C2.32232344,13.4641857 2.38303828,13.4756541 2.44321172,13.4756541 C2.56479609,13.4756541 2.68421484,13.42871 2.77358555,13.3404029 L6.07040156,10.0814527 L12.8568453,10.0814527 C13.0824206,10.0814527 13.2706233,9.92341869 13.3143444,9.71323085 C13.3363236,9.65878332 13.3484367,9.59920124 13.3484367,9.53675915 L13.3484367,4.53583024 C13.3484367,4.27788884 13.141737,4.06875134 12.886717,4.06875134 C12.631697,4.06875134 12.4249973,4.27792751 12.4249973,4.53583024 L12.4249973,9.15800753 Z" id="Combined-Shape" fill-rule="nonzero"></path>
            </g>
        </g>
    </g>
</svg>