<?xml version="1.0" encoding="UTF-8"?>
<svg width="13px" height="14px" viewBox="0 0 13 14" version="1.1" xmlns="http://www.w3.org/2000/svg" xmlns:xlink="http://www.w3.org/1999/xlink">
    <!-- Generator: Sketch 43.2 (39069) - http://www.bohemiancoding.com/sketch -->
    <title>favourite marked copy</title>
    <desc>Created with Sketch.</desc>
    <defs></defs>
    <g id="Page-1" stroke="none" stroke-width="1" fill="none" fill-rule="evenodd">
        <g id="group-chat" transform="translate(-1315.000000, -430.000000)" fill-rule="nonzero" fill="#AAAAAA">
            <g id="chat-bubble-self" transform="translate(969.000000, 427.000000)">
                <g id="favourite-marked-copy" transform="translate(346.000000, 3.000000)">
                    <path d="M5.10416667,5.89713542 L5.10416667,10.6549479 C5.10416667,10.7320421 5.07938639,10.7953695 5.02982585,10.84493 C4.9802653,10.8944906 4.91693793,10.9192708 4.83984375,10.9192708 L4.31119792,10.9192708 C4.23410373,10.9192708 4.17077637,10.8944906 4.12121582,10.84493 C4.07165527,10.7953695 4.046875,10.7320421 4.046875,10.6549479 L4.046875,5.89713542 C4.046875,5.82004123 4.07165527,5.75671387 4.12121582,5.70715332 C4.17077637,5.65759277 4.23410373,5.6328125 4.31119792,5.6328125 L4.83984375,5.6328125 C4.91693793,5.6328125 4.9802653,5.65759277 5.02982585,5.70715332 C5.07938639,5.75671387 5.10416667,5.82004123 5.10416667,5.89713542 Z M7.21875,5.89713542 L7.21875,10.6549479 C7.21875,10.7320421 7.19396973,10.7953695 7.14440918,10.84493 C7.09484863,10.8944906 7.03152127,10.9192708 6.95442708,10.9192708 L6.42578125,10.9192708 C6.34868707,10.9192708 6.2853597,10.8944906 6.23579915,10.84493 C6.18623861,10.7953695 6.16145833,10.7320421 6.16145833,10.6549479 L6.16145833,5.89713542 C6.16145833,5.82004123 6.18623861,5.75671387 6.23579915,5.70715332 C6.2853597,5.65759277 6.34868707,5.6328125 6.42578125,5.6328125 L6.95442708,5.6328125 C7.03152127,5.6328125 7.09484863,5.65759277 7.14440918,5.70715332 C7.19396973,5.75671387 7.21875,5.82004123 7.21875,5.89713542 Z M9.33333333,5.89713542 L9.33333333,10.6549479 C9.33333333,10.7320421 9.30855306,10.7953695 9.25899251,10.84493 C9.20943197,10.8944906 9.1461046,10.9192708 9.06901042,10.9192708 L8.54036458,10.9192708 C8.4632704,10.9192708 8.39994303,10.8944906 8.35038249,10.84493 C8.30082194,10.7953695 8.27604167,10.7320421 8.27604167,10.6549479 L8.27604167,5.89713542 C8.27604167,5.82004123 8.30082194,5.75671387 8.35038249,5.70715332 C8.39994303,5.65759277 8.4632704,5.6328125 8.54036458,5.6328125 L9.06901042,5.6328125 C9.1461046,5.6328125 9.20943197,5.65759277 9.25899251,5.70715332 C9.30855306,5.75671387 9.33333333,5.82004123 9.33333333,5.89713542 Z M10.390625,11.8774414 L10.390625,4.046875 L2.98958333,4.046875 L2.98958333,11.8774414 C2.98958333,11.9985894 3.00885688,12.1101006 3.04740397,12.2119751 C3.08595106,12.3138496 3.12587484,12.3881904 3.16717529,12.4349976 C3.20847575,12.4818047 3.23738607,12.5052083 3.25390625,12.5052083 L10.1263021,12.5052083 C10.1428223,12.5052083 10.1717326,12.4818047 10.213033,12.4349976 C10.2543335,12.3881904 10.2942573,12.3138496 10.3328044,12.2119751 C10.3713515,12.1101006 10.390625,11.9985894 10.390625,11.8774414 Z M4.83984375,2.98958333 L8.54036458,2.98958333 L8.14388021,2.02315267 C8.10533312,1.97359212 8.05852593,1.94330512 8.00345866,1.93229167 L5.38500977,1.93229167 C5.32994249,1.94330512 5.28313531,1.97359212 5.24458822,2.02315267 L4.83984375,2.98958333 Z M12.5052083,3.25390625 L12.5052083,3.78255208 C12.5052083,3.85964627 12.4804281,3.92297363 12.4308675,3.97253418 C12.381307,4.02209473 12.3179796,4.046875 12.2408854,4.046875 L11.4479167,4.046875 L11.4479167,11.8774414 C11.4479167,12.3344998 11.3185086,12.7296075 11.0596924,13.0627645 C10.8008762,13.3959215 10.4897461,13.5625 10.1263021,13.5625 L3.25390625,13.5625 C2.89046224,13.5625 2.57933214,13.4014282 2.32051595,13.0792847 C2.06169976,12.7571411 1.93229167,12.3675401 1.93229167,11.9104818 L1.93229167,4.046875 L1.13932292,4.046875 C1.06222873,4.046875 0.998901367,4.02209473 0.94934082,3.97253418 C0.899780273,3.92297363 0.875,3.85964627 0.875,3.78255208 L0.875,3.25390625 C0.875,3.17681207 0.899780273,3.1134847 0.94934082,3.06392415 C0.998901367,3.01436361 1.06222873,2.98958333 1.13932292,2.98958333 L3.69169108,2.98958333 L4.26989746,1.61014811 C4.35249837,1.4063992 4.50118001,1.23293728 4.71594238,1.08976237 C4.93070475,0.946587457 5.14822049,0.875 5.36848958,0.875 L8.01171875,0.875 C8.23198785,0.875 8.44950358,0.946587457 8.66426595,1.08976237 C8.87902832,1.23293728 9.02770996,1.4063992 9.11031087,1.61014811 L9.68851725,2.98958333 L12.2408854,2.98958333 C12.3179796,2.98958333 12.381307,3.01436361 12.4308675,3.06392415 C12.4804281,3.1134847 12.5052083,3.17681207 12.5052083,3.25390625 Z" id="Shape"></path>
                </g>
            </g>
        </g>
    </g>
</svg>