<?xml version="1.0" encoding="UTF-8"?>
<svg width="17px" height="17px" viewBox="0 0 17 17" version="1.1" xmlns="http://www.w3.org/2000/svg" xmlns:xlink="http://www.w3.org/1999/xlink">
    <!-- Generator: Sketch 43.2 (39069) - http://www.bohemiancoding.com/sketch -->
    <title>Group 4</title>
    <desc>Created with Sketch.</desc>
    <defs></defs>
    <g id="Symbols" stroke="none" stroke-width="1" fill="none" fill-rule="evenodd">
        <g id="icon-collapse-copy" transform="translate(-1.000000, -1.000000)" fill-rule="nonzero">
            <g id="Group-4" transform="translate(-1.000000, -1.000000)">
                <path d="M14.4049679,10.564657 C14.308507,10.5141028 14.2331159,10.4382879 14.1922188,10.3483835 L11.7357073,7.89187191 C11.5272904,7.68345503 11.525289,7.34737663 11.7313763,7.14128933 C11.9374636,6.93520202 12.2735108,6.93717212 12.4819589,7.14562025 L14.1582535,8.82191488 L14.1582535,1.20696108 C14.1582535,0.964674189 14.3944817,0.768163494 14.6859332,0.768163494 C14.9773846,0.768163494 15.2136128,0.964637858 15.2136128,1.20696108 L15.2136128,8.87488509 L16.9428776,7.14562025 C17.1513257,6.93717212 17.4873729,6.93520202 17.6934602,7.14128933 C17.8995475,7.34737663 17.8975462,7.68345503 17.6891293,7.89187191 L15.1619003,10.4191009 C15.1424374,10.4489336 15.1196231,10.4771981 15.0934541,10.5033671 C14.9887309,10.6080903 14.8504581,10.6590978 14.7124183,10.6565845 C14.6047302,10.6585452 14.4969003,10.6279335 14.4049679,10.564657 Z" id="Combined-Shape-Copy" fill="#333333" transform="translate(14.712418, 5.712418) scale(-1, -1) rotate(45.000000) translate(-14.712418, -5.712418) "></path>
                <path d="M5.4049679,19.564657 C5.30850698,19.5141028 5.23311587,19.4382879 5.19221883,19.3483835 L2.73570725,16.8918719 C2.52729037,16.683455 2.52528902,16.3473766 2.73137633,16.1412893 C2.93746363,15.935202 3.27351078,15.9371721 3.48195891,16.1456203 L5.15825355,17.8219149 L5.15825355,10.2069611 C5.15825355,9.96467419 5.3944817,9.76816349 5.68593316,9.76816349 C5.97738461,9.76816349 6.21361277,9.96463786 6.21361277,10.2069611 L6.21361277,17.8748851 L7.94287761,16.1456203 C8.15132575,15.9371721 8.4873729,15.935202 8.6934602,16.1412893 C8.8995475,16.3473766 8.89754616,16.683455 8.68912928,16.8918719 L6.16190027,19.4191009 C6.14243744,19.4489336 6.11962313,19.4771981 6.0934541,19.5033671 C5.98873093,19.6080903 5.85045812,19.6590978 5.71241826,19.6565845 C5.60473019,19.6585452 5.49690034,19.6279335 5.4049679,19.564657 Z" id="Combined-Shape-Copy-3" fill="#333333" transform="translate(5.712418, 14.712418) rotate(45.000000) translate(-5.712418, -14.712418) "></path>
                <path d="M3.96285775,5.11014263 C3.94339492,5.13997527 3.9205806,5.16823978 3.89441157,5.19440881 C3.7896884,5.29913198 3.65141559,5.35013948 3.51337574,5.34762623 C3.37533589,5.35013948 3.23706307,5.29913198 3.1323399,5.19440881 C3.10617087,5.16823978 3.08335656,5.13997527 3.06389373,5.11014263 L0.536664725,2.58291363 C0.328247843,2.37449674 0.326246499,2.03841834 0.532333801,1.83233104 C0.738421102,1.62624374 1.07446825,1.62821383 1.28291639,1.83666196 L3.51337574,4.06712131 L5.74383509,1.83666196 C5.95228322,1.62821383 6.28833037,1.62624374 6.49441768,1.83233104 C6.70050498,2.03841834 6.69850363,2.37449674 6.49008675,2.58291363 L3.96285775,5.11014263 Z" id="Combined-Shape-Copy-5" fill="#AAAAAA" transform="translate(3.513376, 3.513376) scale(1, -1) rotate(45.000000) translate(-3.513376, -3.513376) "></path>
                <path d="M17.3609428,18.5082277 C17.34148,18.5380603 17.3186657,18.5663248 17.2924966,18.5924939 C17.1877735,18.697217 17.0495006,18.7482245 16.9114608,18.7457113 C16.7734209,18.7482245 16.6351481,18.697217 16.530425,18.5924939 C16.5042559,18.5663248 16.4814416,18.5380603 16.4619788,18.5082277 L13.9347498,15.9809987 C13.7263329,15.7725818 13.7243315,15.4365034 13.9304189,15.2304161 C14.1365062,15.0243288 14.4725533,15.0262989 14.6810014,15.234747 L16.9114608,17.4652064 L19.1419201,15.234747 C19.3503683,15.0262989 19.6864154,15.0243288 19.8925027,15.2304161 C20.09859,15.4365034 20.0965887,15.7725818 19.8881718,15.9809987 L17.3609428,18.5082277 Z" id="Combined-Shape-Copy-4" fill="#AAAAAA" transform="translate(16.911461, 16.911461) scale(-1, 1) rotate(45.000000) translate(-16.911461, -16.911461) "></path>
            </g>
        </g>
    </g>
</svg>