<?xml version="1.0" encoding="UTF-8"?>
<svg width="25px" height="25px" viewBox="0 0 25 25" version="1.1" xmlns="http://www.w3.org/2000/svg" xmlns:xlink="http://www.w3.org/1999/xlink">
    <!-- Generator: Sketch 46.1 (44463) - http://www.bohemiancoding.com/sketch -->
    <title>Shape</title>
    <desc>Created with Sketch.</desc>
    <defs></defs>
    <g id="Page-1" stroke="none" stroke-width="1" fill="none" fill-rule="evenodd">
        <g id="group-chat" transform="translate(-1050.000000, -731.000000)" fill-rule="nonzero" fill="#455A64">
            <path d="M1068.45703,746.413411 C1068.05556,747.726345 1067.30686,748.784288 1066.21094,749.58724 C1065.11502,750.390191 1063.87804,750.791667 1062.5,750.791667 C1061.12196,750.791667 1059.88498,750.390191 1058.78906,749.58724 C1057.69314,748.784288 1056.94444,747.726345 1056.54297,746.413411 C1056.45616,746.142144 1056.47786,745.879015 1056.60807,745.624023 C1056.73828,745.369032 1056.94444,745.198134 1057.22656,745.111328 C1057.49783,745.024523 1057.76096,745.046224 1058.01595,745.176432 C1058.27094,745.306641 1058.44184,745.512804 1058.52865,745.794922 C1058.79991,746.662977 1059.30176,747.36556 1060.03418,747.902669 C1060.7666,748.439779 1061.58854,748.708333 1062.5,748.708333 C1063.41146,748.708333 1064.2334,748.439779 1064.96582,747.902669 C1065.69824,747.36556 1066.20009,746.662977 1066.47135,745.794922 C1066.55816,745.512804 1066.73177,745.306641 1066.99219,745.176432 C1067.2526,745.046224 1067.51845,745.024523 1067.78971,745.111328 C1068.06098,745.198134 1068.26172,745.369032 1068.39193,745.624023 C1068.52214,745.879015 1068.54384,746.142144 1068.45703,746.413411 Z M1060.41667,739.333333 C1060.41667,739.90842 1060.21322,740.399414 1059.80632,740.806315 C1059.39941,741.213216 1058.90842,741.416667 1058.33333,741.416667 C1057.75825,741.416667 1057.26725,741.213216 1056.86035,740.806315 C1056.45345,740.399414 1056.25,739.90842 1056.25,739.333333 C1056.25,738.758247 1056.45345,738.267253 1056.86035,737.860352 C1057.26725,737.453451 1057.75825,737.25 1058.33333,737.25 C1058.90842,737.25 1059.39941,737.453451 1059.80632,737.860352 C1060.21322,738.267253 1060.41667,738.758247 1060.41667,739.333333 Z M1068.75,739.333333 C1068.75,739.90842 1068.54655,740.399414 1068.13965,740.806315 C1067.73275,741.213216 1067.24175,741.416667 1066.66667,741.416667 C1066.09158,741.416667 1065.60059,741.213216 1065.19368,740.806315 C1064.78678,740.399414 1064.58333,739.90842 1064.58333,739.333333 C1064.58333,738.758247 1064.78678,738.267253 1065.19368,737.860352 C1065.60059,737.453451 1066.09158,737.25 1066.66667,737.25 C1067.24175,737.25 1067.73275,737.453451 1068.13965,737.860352 C1068.54655,738.267253 1068.75,738.758247 1068.75,739.333333 Z M1072.91667,743.5 C1072.91667,742.08941 1072.63997,740.741211 1072.08659,739.455404 C1071.5332,738.169596 1070.79264,737.062826 1069.86491,736.135091 C1068.93717,735.207357 1067.8304,734.466797 1066.5446,733.913411 C1065.25879,733.360026 1063.91059,733.083333 1062.5,733.083333 C1061.08941,733.083333 1059.74121,733.360026 1058.4554,733.913411 C1057.1696,734.466797 1056.06283,735.207357 1055.13509,736.135091 C1054.20736,737.062826 1053.4668,738.169596 1052.91341,739.455404 C1052.36003,740.741211 1052.08333,742.08941 1052.08333,743.5 C1052.08333,744.91059 1052.36003,746.258789 1052.91341,747.544596 C1053.4668,748.830404 1054.20736,749.937174 1055.13509,750.864909 C1056.06283,751.792643 1057.1696,752.533203 1058.4554,753.086589 C1059.74121,753.639974 1061.08941,753.916667 1062.5,753.916667 C1063.91059,753.916667 1065.25879,753.639974 1066.5446,753.086589 C1067.8304,752.533203 1068.93717,751.792643 1069.86491,750.864909 C1070.79264,749.937174 1071.5332,748.830404 1072.08659,747.544596 C1072.63997,746.258789 1072.91667,744.91059 1072.91667,743.5 Z M1075,743.5 C1075,745.767795 1074.44119,747.859266 1073.32357,749.774414 C1072.20595,751.689562 1070.68956,753.205946 1068.77441,754.323568 C1066.85927,755.441189 1064.7678,756 1062.5,756 C1060.2322,756 1058.14073,755.441189 1056.22559,754.323568 C1054.31044,753.205946 1052.79405,751.689562 1051.67643,749.774414 C1050.55881,747.859266 1050,745.767795 1050,743.5 C1050,741.232205 1050.55881,739.140734 1051.67643,737.225586 C1052.79405,735.310438 1054.31044,733.794054 1056.22559,732.676432 C1058.14073,731.558811 1060.2322,731 1062.5,731 C1064.7678,731 1066.85927,731.558811 1068.77441,732.676432 C1070.68956,733.794054 1072.20595,735.310438 1073.32357,737.225586 C1074.44119,739.140734 1075,741.232205 1075,743.5 Z" id="Shape"></path>
        </g>
    </g>
</svg>