<?xml version="1.0" encoding="UTF-8"?>
<svg width="24px" height="20px" viewBox="0 0 24 20" version="1.1" xmlns="http://www.w3.org/2000/svg" xmlns:xlink="http://www.w3.org/1999/xlink">
    <!-- Generator: Sketch 43.2 (39069) - http://www.bohemiancoding.com/sketch -->
    <title>icon-recent-chats-active</title>
    <desc>Created with Sketch.</desc>
    <defs></defs>
    <g id="Page-1" stroke="none" stroke-width="1" fill="none" fill-rule="evenodd">
        <g id="web-icons" transform="translate(-170.000000, -168.000000)" fill-rule="nonzero" fill="#53718A">
            <g id="icon-recent-chats-active" transform="translate(170.000000, 168.000000)">
                <path d="M17.4510938,0.0367961165 C18.1962656,0.0367961165 18.8025,0.66461165 18.8025,1.43631068 L18.8025,5.27393204 C18.8025,5.59776699 18.5489531,5.86024272 18.2363437,5.86024272 C17.9892264,5.86024272 12,5.98416802 10.0137724,5.98416802 C8.99920296,5.98416802 8.77787012,6.54199032 8.77322536,7.028243 C8.75811237,8.6103992 8.72596875,12.0045869 8.72596875,12.2523301 C8.72596875,12.576165 8.47251563,12.8386408 8.1598125,12.8386408 L7.3580625,12.8386408 L3.36192188,16.9769903 C3.25359375,17.0891262 3.10884375,17.1487379 2.96146875,17.1487379 C2.88853125,17.1487379 2.8149375,17.1341748 2.74490625,17.1040777 C2.5333125,17.013301 2.39540625,16.799466 2.39540625,16.5623786 L2.39540625,12.8385922 L1.35145313,12.8385922 C0.606234375,12.8385922 0,12.2107282 0,11.4390291 L0,1.43631068 C0,0.66461165 0.606234375,0.0367961165 1.35145313,0.0367961165 L17.4510938,0.0367961165 Z M14.553375,3.91315534 L4.24921875,3.91315534 C3.9365625,3.91315534 3.6830625,4.17563107 3.6830625,4.49946602 C3.6830625,4.82330097 3.93660938,5.0857767 4.24921875,5.0857767 L14.553375,5.0857767 C14.8660313,5.0857767 15.1195313,4.82330097 15.1195313,4.49946602 C15.1195313,4.17563107 14.8660313,3.91315534 14.553375,3.91315534 Z M7.15976562,7.78956311 L4.24921875,7.78956311 C3.9365625,7.78956311 3.6830625,8.05203883 3.6830625,8.37587379 C3.6830625,8.69970874 3.93660938,8.96218447 4.24921875,8.96218447 L7.15976562,8.96218447 C7.47246875,8.96218447 7.72592188,8.69970874 7.72592188,8.37587379 C7.72592188,8.05203883 7.47242187,7.78956311 7.15976562,7.78956311 Z M22.6485469,7.20834951 C23.3937656,7.20834951 24,7.83616505 23.9999531,8.60786408 L23.9999531,15.4316505 C23.9999531,16.2033981 23.3936719,16.8312136 22.6485,16.8312136 L22.2593906,16.8312136 L22.2593906,19.3768447 C22.2593906,19.6140291 22.1213906,19.827767 21.9098906,19.9185437 C21.8398594,19.9485922 21.7662656,19.9632039 21.6933281,19.9632039 C21.546,19.9632039 21.4012031,19.9036408 21.292875,19.7914563 L18.4344375,16.8312621 L11.3790938,16.8312621 C10.633875,16.8312621 10.0276406,16.2033981 10.0276406,15.431699 L10.0276406,8.60791262 C10.0276406,7.83616505 10.6339219,7.20834951 11.3790938,7.20834951 L22.6485469,7.20834951 Z M17.0139375,11.4334951 C16.7014219,11.4334951 16.4477812,11.696165 16.4477812,12.0198058 C16.4477812,12.3434466 16.7014219,12.6061165 17.0139375,12.6061165 C17.3265,12.6061165 17.5800938,12.3434466 17.5800938,12.0198058 C17.5800938,11.696165 17.3264531,11.4334951 17.0139375,11.4334951 Z M14.3829844,11.4334951 C14.0705156,11.4334951 13.8168281,11.696165 13.8168281,12.0198058 C13.8168281,12.3434466 14.0705156,12.6061165 14.3829844,12.6061165 C14.6955469,12.6061165 14.9491406,12.3434466 14.9491406,12.0198058 C14.9491406,11.696165 14.6955469,11.4334951 14.3829844,11.4334951 Z M19.6443281,11.4334951 C19.3318125,11.4334951 19.0781719,11.696165 19.0781719,12.0198058 C19.0781719,12.3434466 19.3318125,12.6061165 19.6443281,12.6061165 C19.9568906,12.6061165 20.2104844,12.3434466 20.2104844,12.0198058 C20.2104844,11.696165 19.9568437,11.4334951 19.6443281,11.4334951 Z" id="Combined-Shape"></path>
            </g>
        </g>
    </g>
</svg>