<?xml version="1.0" encoding="UTF-8"?>
<svg width="24px" height="20px" viewBox="0 0 24 20" version="1.1" xmlns="http://www.w3.org/2000/svg" xmlns:xlink="http://www.w3.org/1999/xlink">
    <!-- Generator: Sketch 43.2 (39069) - http://www.bohemiancoding.com/sketch -->
    <title>icon-recent-chats-inactive</title>
    <desc>Created with Sketch.</desc>
    <defs></defs>
    <g id="Page-1" stroke="none" stroke-width="1" fill="none" fill-rule="evenodd">
        <g id="web-icons" transform="translate(-170.000000, -215.000000)" fill-rule="nonzero" fill="#BEBEBE">
            <g id="icon-recent-chats-inactive" transform="translate(170.000000, 215.000000)">
                <path d="M17.4510938,0.0367961165 C18.1962656,0.0367961165 18.8025,0.66461165 18.8025,1.43631068 L18.8025,5.27393204 C18.8025,5.59776699 18.5489531,5.86024272 18.2363438,5.86024272 C17.9237344,5.86024272 17.6701875,5.59776699 17.6701875,5.27393204 L17.6701875,1.43631068 C17.6701875,1.31121359 17.5719375,1.20941748 17.4510938,1.20941748 L1.35145313,1.20941748 C1.23065625,1.20941748 1.13235938,1.31116505 1.13235938,1.43631068 L1.13235938,11.4390777 C1.13235938,11.5641748 1.23060938,11.6659709 1.35145313,11.6659709 L2.96128125,11.6659709 C3.25692188,11.6659709 3.49935938,11.9007282 3.52490625,12.2000485 C3.52673438,12.2152427 3.52771875,15.1468932 3.52771875,15.1468932 L6.72314063,11.8377184 C6.82392188,11.7333981 6.95329688,11.6771845 7.08510938,11.6679126 C7.09621875,11.6667476 8.1598125,11.6659709 8.1598125,11.6659709 C8.47242188,11.6659709 8.72596875,11.9284466 8.72596875,12.2523301 C8.72596875,12.576165 8.47251563,12.8386408 8.1598125,12.8386408 L7.3580625,12.8386408 L3.36192188,16.9769903 C3.25359375,17.0891262 3.10884375,17.1487379 2.96146875,17.1487379 C2.88853125,17.1487379 2.8149375,17.1341748 2.74490625,17.1040777 C2.5333125,17.013301 2.39540625,16.799466 2.39540625,16.5623786 L2.39540625,12.8385922 L1.35145313,12.8385922 C0.606234375,12.8385922 0,12.2107282 0,11.4390291 L0,1.43631068 C0,0.66461165 0.606234375,0.0367961165 1.35145313,0.0367961165 L17.4510938,0.0367961165 Z M14.553375,3.91315534 C14.8660312,3.91315534 15.1195312,4.17563107 15.1195312,4.49946602 C15.1195312,4.82330097 14.8660312,5.0857767 14.553375,5.0857767 L4.24921875,5.0857767 C3.93660937,5.0857767 3.6830625,4.82330097 3.6830625,4.49946602 C3.6830625,4.17563107 3.9365625,3.91315534 4.24921875,3.91315534 L14.553375,3.91315534 Z M7.15976562,7.78956311 C7.47242187,7.78956311 7.72592187,8.05203883 7.72592187,8.37587379 C7.72592187,8.69970874 7.47246875,8.96218447 7.15976562,8.96218447 L4.24921875,8.96218447 C3.93660937,8.96218447 3.6830625,8.69970874 3.6830625,8.37587379 C3.6830625,8.05203883 3.9365625,7.78956311 4.24921875,7.78956311 L7.15976562,7.78956311 Z" id="Combined-Shape"></path>
                <path d="M22.6485469,7.20834951 L11.3790938,7.20834951 C10.6339219,7.20834951 10.0276406,7.83616505 10.0276406,8.60791262 L10.0276406,15.431699 C10.0276406,16.2033981 10.633875,16.8312621 11.3790938,16.8312621 L18.4344375,16.8312621 L21.292875,19.7914563 C21.4012031,19.9036408 21.546,19.9632039 21.6933281,19.9632039 C21.7662656,19.9632039 21.8398594,19.9485922 21.9098906,19.9185437 C22.1213906,19.827767 22.2593906,19.6140291 22.2593906,19.3768447 L22.2593906,16.8312136 L22.6485,16.8312136 C23.3936719,16.8312136 23.9999531,16.2033981 23.9999531,15.4316505 L23.9999531,8.60786408 C24,7.83616505 23.3937656,7.20834951 22.6485469,7.20834951 Z M22.8676875,15.431699 C22.8676875,15.5567961 22.7693906,15.6585922 22.6485938,15.6585922 L21.6934688,15.6585922 C21.3955313,15.6585922 21.151875,15.8970388 21.1295156,16.1997087 C21.1280625,16.2125243 21.127125,17.9613592 21.127125,17.9613592 L19.0714688,15.8324757 C19.0693125,15.8302427 19.0670625,15.8281553 19.0649063,15.8259223 C19.0568438,15.817767 19.0492031,15.8106796 19.0419844,15.8043204 C18.9423281,15.713835 18.8121563,15.6585437 18.6692813,15.6585437 L11.3790938,15.6585437 C11.25825,15.6585437 11.16,15.5567476 11.16,15.4316505 L11.16,8.60786408 C11.16,8.48271845 11.2582969,8.38097087 11.3790938,8.38097087 L22.6485938,8.38097087 C22.7693906,8.38097087 22.8676875,8.48276699 22.8676875,8.60786408 L22.8676875,15.431699 L22.8676875,15.431699 Z" id="Shape"></path>
                <path d="M17.0139375,11.4334951 C17.3264531,11.4334951 17.5800937,11.696165 17.5800937,12.0198058 C17.5800937,12.3434466 17.3265,12.6061165 17.0139375,12.6061165 C16.7014219,12.6061165 16.4477812,12.3434466 16.4477812,12.0198058 C16.4477812,11.696165 16.7014219,11.4334951 17.0139375,11.4334951 Z M14.3829844,11.4334951 C14.6955469,11.4334951 14.9491406,11.696165 14.9491406,12.0198058 C14.9491406,12.3434466 14.6955469,12.6061165 14.3829844,12.6061165 C14.0705156,12.6061165 13.8168281,12.3434466 13.8168281,12.0198058 C13.8168281,11.696165 14.0705156,11.4334951 14.3829844,11.4334951 Z M19.6443281,11.4334951 C19.9568437,11.4334951 20.2104844,11.696165 20.2104844,12.0198058 C20.2104844,12.3434466 19.9568906,12.6061165 19.6443281,12.6061165 C19.3318125,12.6061165 19.0781719,12.3434466 19.0781719,12.0198058 C19.0781719,11.696165 19.3318125,11.4334951 19.6443281,11.4334951 Z" id="Combined-Shape"></path>
            </g>
        </g>
    </g>
</svg>