<?xml version="1.0" encoding="UTF-8"?>
<svg width="27px" height="21px" viewBox="0 0 27 21" version="1.1" xmlns="http://www.w3.org/2000/svg" xmlns:xlink="http://www.w3.org/1999/xlink">
    <!-- Generator: Sketch 43.2 (39069) - http://www.bohemiancoding.com/sketch -->
    <title>icon-groups-inactive</title>
    <desc>Created with Sketch.</desc>
    <defs></defs>
    <g id="Page-1" stroke="none" stroke-width="1" fill="none" fill-rule="evenodd">
        <g id="web-icons" transform="translate(-225.000000, -215.000000)" fill-rule="nonzero" fill="#BEBEBE">
            <g id="icon-groups-inactive" transform="translate(225.000000, 215.000000)">
                <path d="M12.8412291,11.3130435 L12.9106742,11.3130435 L12.9367161,11.3130435 L12.9801193,11.3130435 C14.2518327,11.2913043 15.2804882,10.8434783 16.040044,9.98695652 C17.7110666,8.1 17.4332862,4.86521739 17.402904,4.55652174 C17.294396,2.23913043 16.2006357,1.13043478 15.2978495,0.613043478 C14.6251001,0.226086957 13.8395024,0.0173913043 12.962758,0 L12.9323758,0 L12.9150145,0 L12.8889726,0 C12.4071972,0 11.4610078,0.0782608696 10.5538812,0.595652174 C9.64241425,1.11304348 8.53129268,2.22173913 8.42278471,4.55652174 C8.39240248,4.86521739 8.11462209,8.1 9.78564477,9.98695652 C10.5408602,10.8434783 11.5695157,11.2913043 12.8412291,11.3130435 Z M9.58164979,4.66521739 C9.58164979,4.65217391 9.58599011,4.63913043 9.58599011,4.63043478 C9.72922063,1.51304348 11.9384428,1.17826087 12.8846323,1.17826087 L12.9019936,1.17826087 L12.9367161,1.17826087 C14.1086022,1.20434783 16.1008084,1.6826087 16.2353583,4.63043478 C16.2353583,4.64347826 16.2353583,4.65652174 16.2396986,4.66521739 C16.2440389,4.69565217 16.5478612,7.65217391 15.1676399,9.20869565 C14.6207598,9.82608696 13.8915862,10.1304348 12.9323758,10.1391304 L12.9106742,10.1391304 L12.8889726,10.1391304 C11.9341025,10.1304348 11.2005887,9.82608696 10.6580488,9.20869565 C9.2821678,7.66086957 9.57730947,4.69130435 9.58164979,4.66521739 Z M21.830029,16.6782609 C21.8343694,16.9043478 21.8387097,18.0652174 21.6216937,18.6434783 C21.5782906,18.7565217 21.4958245,18.8521739 21.3959972,18.9173913 C21.2657876,19 18.1450985,20.9956522 12.9236952,20.9956522 C7.70229181,20.9956522 4.5816027,19.0043478 4.45139314,18.9173913 C4.34722549,18.8521739 4.26909976,18.7565217 4.22569657,18.6434783 C3.99565968,18.0608696 4,16.9 4.00434032,16.673913 L4.00434032,16.6608696 C4.00868064,16.626087 4.00868064,16.5913043 4.00868064,16.5521739 C4.03472255,15.6956522 4.09114669,13.6826087 5.97484499,13.0347826 C5.98786594,13.0304348 6.0008869,13.026087 6.01824818,13.0217391 C7.98441253,12.5217391 9.60335139,11.3913043 9.62071266,11.3782609 C9.8854721,11.1913043 10.2500589,11.2565217 10.4366926,11.5217391 C10.6233263,11.7869565 10.5582215,12.1521739 10.2934621,12.3391304 C10.2196766,12.3869565 8.49222981,13.5956522 6.33075112,14.1521739 C5.31945687,14.5130435 5.20660859,15.5956522 5.17622636,16.5869565 C5.17622636,16.626087 5.17188604,16.6608696 5.17188604,16.6956522 C5.1632054,17.0869565 5.19358763,17.6913043 5.26303273,18.0391304 C5.97050467,18.4391304 8.74396829,19.826087 12.9193548,19.826087 C17.1121027,19.826087 19.868205,18.4434783 20.5713366,18.0434783 C20.6407817,17.6956522 20.6668236,17.0913043 20.6624833,16.7 C20.658143,16.6652174 20.658143,16.6304348 20.658143,16.5913043 C20.6277608,15.6 20.5149125,14.5173913 19.5036182,14.1565217 C17.3421395,13.6 15.6146927,12.3956522 15.5409073,12.3434783 C15.2761479,12.1565217 15.2110431,11.7913043 15.3976768,11.526087 C15.5843105,11.2608696 15.9488973,11.1956522 16.2136567,11.3826087 C16.231018,11.3956522 17.8586375,12.526087 19.8161212,13.026087 C19.8291421,13.0304348 19.8465034,13.0347826 19.8595244,13.0391304 C21.7432227,13.6826087 21.7996468,15.6956522 21.8256887,16.5565217 C21.8256887,16.5956522 21.830029,16.6304348 21.830029,16.6652174 L21.830029,16.6782609 Z" id="Combined-Shape"></path>
                <path d="M5.35521825,10.8378395 L5.39412307,10.8378395 L5.40871238,10.8378395 L5.43302789,10.8378395 C6.14547235,10.8256607 6.72174995,10.5747777 7.14727139,10.0949336 C8.08341855,9.03781513 7.92779928,7.22561198 7.91077843,7.05267324 C7.84998965,5.75441481 7.23723878,5.1332968 6.73147616,4.84344172 C6.35458574,4.62665936 5.914475,4.50974303 5.42330168,4.5 L5.40628083,4.5 L5.39655462,4.5 L5.38196532,4.5 C5.11206315,4.5 4.58198501,4.54384362 4.07379084,4.8336987 C3.56316512,5.12355377 2.94068804,5.74467178 2.87989927,7.05267324 C2.86287841,7.22561198 2.70725914,9.03781513 3.6434063,10.0949336 C4.06649619,10.5747777 4.64277379,10.8256607 5.35521825,10.8378395 Z M3.10022306,16.5991077 C1.33020866,16.2874611 0.308287422,15.6349796 0.252881311,15.5979783 C0.194524085,15.561442 0.150756166,15.5078553 0.126440656,15.4445256 C-0.00243155107,15.1181342 -2.73262749e-13,14.4677871 0.00243155107,14.3338205 C0.00486310214,14.3143344 0.00486310214,14.2948484 0.00486310214,14.2729266 C0.0194524085,13.7930825 0.0510625724,12.665327 1.13067125,12.2950919 C2.23216388,12.0149799 3.13913243,11.3816831 3.14885863,11.3743758 C3.29718325,11.2696383 3.50143354,11.3061746 3.60599023,11.4547558 C3.71054693,11.603337 3.75431485,11.8952625 3.60599023,12 C3.60599023,12 3.21091243,12.6190476 2,12.9308245 C0.948937428,13 0.968389836,13.7394958 0.951368979,14.2948484 C0.951368979,14.3167702 0.948937428,14.3362562 0.948937428,14.3557423 C0.944074325,14.5749604 0.961095183,14.9135306 1,15.1083912 C1.28560946,15.2698729 2.01977124,15.6616196 3.28302171,15.8679132 L3.10022306,16.5991077 Z M3.78427125,7.18887799 C3.78427125,7.18256067 3.78637339,7.17624335 3.78637339,7.1720318 C3.85574394,5.66219186 4.92573214,5.50004727 5.3839982,5.50004727 L5.39240675,5.50004727 L5.40922386,5.50004727 C5.97680109,5.51268191 6.9416824,5.74431705 7.00684867,7.1720318 C7.00684867,7.17834912 7.00684867,7.18466644 7.00895081,7.18887799 C7.01105295,7.20361841 7.1582026,8.63554471 6.48972274,9.38941179 C6.22485337,9.6884317 5.8716942,9.83583587 5.40712172,9.84004742 L5.39661103,9.84004742 L5.38610034,9.84004742 C4.92363,9.83583587 4.56836869,9.6884317 4.30560145,9.38941179 C3.63922374,8.63975626 3.78216911,7.20151264 3.78427125,7.18887799 Z" id="Combined-Shape"></path>
                <path d="M23.4512998,10.8378395 L23.4902046,10.8378395 L23.5047939,10.8378395 L23.5291094,10.8378395 C24.2415539,10.8256607 24.8178315,10.5747777 25.2433529,10.0949336 C26.1795001,9.03781513 26.0238808,7.22561198 26.0068599,7.05267324 C25.9460712,5.75441481 25.3333203,5.1332968 24.8275577,4.84344172 C24.4506672,4.62665936 24.0105565,4.50974303 23.5193832,4.5 L23.5023623,4.5 L23.4926361,4.5 L23.4780468,4.5 C23.2081447,4.5 22.6780665,4.54384362 22.1698723,4.8336987 C21.6592466,5.12355377 21.0367695,5.74467178 20.9759808,7.05267324 C20.9589599,7.22561198 20.8033406,9.03781513 21.7394878,10.0949336 C22.1625777,10.5747777 22.7388553,10.8256607 23.4512998,10.8378395 Z M21.1984537,16.5991077 C19.4284393,16.2874611 18.406518,15.6349796 18.3511119,15.5979783 C18.2927547,15.561442 18.2489868,15.5078553 18.2246713,15.4445256 C18.0957991,15.1181342 18.0982306,14.4677871 18.1006622,14.3338205 C18.1030937,14.3143344 18.1030937,14.2948484 18.1030937,14.2729266 C18.117683,13.7930825 18.1492932,12.665327 19.2289019,12.2950919 C20.3303945,12.0149799 21.237363,11.3816831 21.2470892,11.3743758 C21.3954139,11.2696383 21.5996642,11.3061746 21.7042208,11.4547558 C21.8087775,11.603337 21.8525455,11.8952625 21.7042208,12 C21.7042208,12 21.309143,12.6190476 20.0982306,12.9308245 C19.047168,13 19.0666205,13.7394958 19.0495996,14.2948484 C19.0495996,14.3167702 19.047168,14.3362562 19.047168,14.3557423 C19.0423049,14.5749604 19.0593258,14.9135306 19.0982306,15.1083912 C19.3838401,15.2698729 20.1180019,15.6616196 21.3812523,15.8679132 L21.1984537,16.5991077 Z M21.8769266,7.18887799 C21.8769266,7.18256067 21.8790287,7.17624335 21.8790287,7.1720318 C21.9483993,5.66219186 23.0183875,5.50004727 23.4766535,5.50004727 L23.4850621,5.50004727 L23.5018792,5.50004727 C24.0694564,5.51268191 25.0343377,5.74431705 25.099504,7.1720318 C25.099504,7.17834912 25.099504,7.18466644 25.1016061,7.18887799 C25.1037083,7.20361841 25.2508579,8.63554471 24.5823781,9.38941179 C24.3175087,9.6884317 23.9643495,9.83583587 23.4997771,9.84004742 L23.4892664,9.84004742 L23.4787557,9.84004742 C23.0162853,9.83583587 22.661024,9.6884317 22.3982568,9.38941179 C21.7318791,8.63975626 21.8748245,7.20151264 21.8769266,7.18887799 Z" id="Combined-Shape-Copy" transform="translate(22.063380, 10.549554) scale(-1, 1) translate(-22.063380, -10.549554) "></path>
            </g>
        </g>
    </g>
</svg>