<?xml version="1.0" encoding="UTF-8"?>
<svg width="18px" height="21px" viewBox="0 0 18 21" version="1.1" xmlns="http://www.w3.org/2000/svg" xmlns:xlink="http://www.w3.org/1999/xlink">
    <!-- Generator: Sketch 43.2 (39069) - http://www.bohemiancoding.com/sketch -->
    <title>icon-users-inactive</title>
    <desc>Created with Sketch.</desc>
    <defs></defs>
    <g id="Page-1" stroke="none" stroke-width="1" fill="none" fill-rule="evenodd">
        <g id="web-icons" transform="translate(-281.000000, -215.000000)" fill-rule="nonzero" fill="#BEBEBE">
            <path d="M289.83807,226.313043 L289.907515,226.313043 L289.933557,226.313043 L289.97696,226.313043 C291.248674,226.291304 292.277329,225.843478 293.036885,224.986957 C294.707908,223.1 294.430127,219.865217 294.399745,219.556522 C294.291237,217.23913 293.197477,216.130435 292.29469,215.613043 C291.621941,215.226087 290.836343,215.017391 289.959599,215 L289.929217,215 L289.911855,215 L289.885814,215 C289.404038,215 288.457849,215.078261 287.550722,215.595652 C286.639255,216.113043 285.528134,217.221739 285.419626,219.556522 C285.389243,219.865217 285.111463,223.1 286.782486,224.986957 C287.537701,225.843478 288.566357,226.291304 289.83807,226.313043 Z M286.578491,219.665217 C286.578491,219.652174 286.582831,219.63913 286.582831,219.630435 C286.726062,216.513043 288.935284,216.178261 289.881473,216.178261 L289.898835,216.178261 L289.933557,216.178261 C291.105443,216.204348 293.097649,216.682609 293.232199,219.630435 C293.232199,219.643478 293.232199,219.656522 293.23654,219.665217 C293.24088,219.695652 293.544702,222.652174 292.164481,224.208696 C291.617601,224.826087 290.888427,225.130435 289.929217,225.13913 L289.907515,225.13913 L289.885814,225.13913 C288.930943,225.130435 288.19743,224.826087 287.65489,224.208696 C286.279009,222.66087 286.57415,219.691304 286.578491,219.665217 Z M298.82687,231.678261 C298.83121,231.904348 298.835551,233.065217 298.618535,233.643478 C298.575132,233.756522 298.492665,233.852174 298.392838,233.917391 C298.262629,234 295.141939,235.995652 289.920536,235.995652 C284.699133,235.995652 281.578444,234.004348 281.448234,233.917391 C281.344066,233.852174 281.265941,233.756522 281.222538,233.643478 C280.992501,233.06087 280.996841,231.9 281.001181,231.673913 L281.001181,231.66087 C281.005522,231.626087 281.005522,231.591304 281.005522,231.552174 C281.031564,230.695652 281.087988,228.682609 282.971686,228.034783 C282.984707,228.030435 282.997728,228.026087 283.015089,228.021739 C284.981253,227.521739 286.600192,226.391304 286.617554,226.378261 C286.882313,226.191304 287.2469,226.256522 287.433534,226.521739 C287.620167,226.786957 287.555062,227.152174 287.290303,227.33913 C287.216518,227.386957 285.489071,228.595652 283.327592,229.152174 C282.316298,229.513043 282.20345,230.595652 282.173067,231.586957 C282.173067,231.626087 282.168727,231.66087 282.168727,231.695652 C282.160046,232.086957 282.190429,232.691304 282.259874,233.03913 C282.967346,233.43913 285.740809,234.826087 289.916196,234.826087 C294.108944,234.826087 296.865046,233.443478 297.568178,233.043478 C297.637623,232.695652 297.663665,232.091304 297.659324,231.7 C297.654984,231.665217 297.654984,231.630435 297.654984,231.591304 C297.624602,230.6 297.511753,229.517391 296.500459,229.156522 C294.338981,228.6 292.611534,227.395652 292.537748,227.343478 C292.272989,227.156522 292.207884,226.791304 292.394518,226.526087 C292.581151,226.26087 292.945738,226.195652 293.210498,226.382609 C293.227859,226.395652 294.855478,227.526087 296.812962,228.026087 C296.825983,228.030435 296.843344,228.034783 296.856365,228.03913 C298.740064,228.682609 298.796488,230.695652 298.82253,231.556522 C298.82253,231.595652 298.82687,231.630435 298.82687,231.665217 L298.82687,231.678261 Z" id="icon-users-inactive"></path>
        </g>
    </g>
</svg>