<?xml version="1.0" encoding="UTF-8"?>
<svg width="17px" height="21px" viewBox="0 0 17 21" version="1.1" xmlns="http://www.w3.org/2000/svg" xmlns:xlink="http://www.w3.org/1999/xlink">
    <!-- Generator: Sketch 43.2 (39069) - http://www.bohemiancoding.com/sketch -->
    <title>icon-users-active</title>
    <desc>Created with Sketch.</desc>
    <defs></defs>
    <g id="Page-1" stroke="none" stroke-width="1" fill="none" fill-rule="evenodd">
        <g id="web-icons" transform="translate(-282.000000, -168.000000)" fill-rule="nonzero" fill="#53718A">
            <path d="M290.241871,178.774327 C289.030715,178.753623 288.051043,178.327122 287.33179,177.511387 C285.74034,175.714286 286.004893,172.63354 286.033829,172.339545 C286.137169,170.115942 287.19538,169.060041 288.063444,168.567288 C288.927374,168.074534 289.828507,168 290.287341,168 L290.312143,168 L290.328677,168 L290.357613,168 C291.192607,168.016563 291.940796,168.215321 292.581509,168.583851 C293.441306,169.076605 294.482982,170.132505 294.586323,172.339545 C294.615259,172.63354 294.879811,175.714286 293.288361,177.511387 C292.564975,178.327122 291.585303,178.753623 290.374147,178.774327 L290.332811,178.774327 L290.308009,178.774327 L290.241871,178.774327 Z M298.977971,184.149312 C298.982105,184.364633 298.986239,185.470223 298.779557,186.020948 C298.73822,186.128608 298.659681,186.219705 298.564608,186.281817 C298.440599,186.360492 295.468514,188.261113 290.495749,188.261113 C285.522984,188.261113 282.550899,186.364633 282.42689,186.281817 C282.327682,186.219705 282.253277,186.128608 282.211941,186.020948 C281.992858,185.466082 281.996991,184.360492 282.001125,184.132749 C282.005259,184.099623 282.005259,184.066496 282.005259,184.029229 C282.03006,183.213494 282.083798,181.29631 283.919133,180.66691 C285.79167,180.19072 287.333517,179.114115 287.350051,179.101693 C287.602203,178.923639 287.949428,178.985751 288.127175,179.238339 C288.217538,179.366751 289.340236,179.771102 290.495749,179.77 C291.613146,179.768936 292.764539,179.366656 292.851922,179.24248 C293.029668,178.989892 293.376894,178.92778 293.629045,179.105834 C293.64558,179.118256 295.195694,180.194861 297.1013,180.683473 C298.895299,181.29631 298.949036,183.213494 298.973838,184.03337 C298.973838,184.070637 298.977971,184.103763 298.977971,184.149312 Z" id="icon-users-active"></path>
        </g>
    </g>
</svg>