<?xml version="1.0" encoding="UTF-8"?>
<svg width="16px" height="17px" viewBox="0 0 16 17" version="1.1" xmlns="http://www.w3.org/2000/svg" xmlns:xlink="http://www.w3.org/1999/xlink">
    <!-- Generator: Sketch 46 (44423) - http://www.bohemiancoding.com/sketch -->
    <title>users-unread-messages</title>
    <desc>Created with Sketch.</desc>
    <defs></defs>
    <g id="Page-1" stroke="none" stroke-width="1" fill="none" fill-rule="evenodd">
        <g id="web-icons" transform="translate(-526.000000, -219.000000)" fill="#D95C6B">
            <path d="M531.709522,234.667291 C531.046402,235.046875 530.327535,235.337267 529.552923,235.538465 C529.307842,235.599735 529.015107,235.654197 528.674717,235.701852 C528.593024,235.70866 528.518138,235.684832 528.45006,235.63037 C528.381982,235.575908 528.337731,235.501022 528.317308,235.405713 L528.307096,235.339337 L528.312202,235.272961 L528.332626,235.211691 L528.358155,235.160632 C528.364963,235.147017 528.376876,235.128295 528.393896,235.104468 C528.410915,235.080641 528.424531,235.063621 528.434743,235.053409 C528.444954,235.043198 528.460272,235.026178 528.480695,235.002351 C528.501119,234.978524 528.514734,234.963206 528.521542,234.956398 C528.555581,234.915552 528.633871,234.830454 528.756411,234.701106 C528.878951,234.571758 528.967452,234.471343 529.021915,234.399861 C529.076377,234.328379 529.152965,234.229666 529.251678,234.103722 C529.350391,233.977778 529.435488,233.846728 529.50697,233.710572 C529.518533,233.688548 529.530051,233.666168 529.541524,233.643432 C527.405424,232.207041 526,229.767648 526,227 C526,222.581722 529.581722,219 534,219 C538.418278,219 542,222.581722 542,227 C542,231.418278 538.418278,235 534,235 C533.204004,235 532.435161,234.883746 531.709522,234.667291 Z M531.654571,232.337781 C532.01608,232.337781 532.309141,232.038309 532.309141,231.66889 C532.309141,231.299472 532.01608,231 531.654571,231 C531.293061,231 531,231.299472 531,231.66889 C531,232.038309 531.293061,232.337781 531.654571,232.337781 Z M534.272853,232.337781 C534.634362,232.337781 534.927424,232.038309 534.927424,231.66889 C534.927424,231.299472 534.634362,231 534.272853,231 C533.911344,231 533.618282,231.299472 533.618282,231.66889 C533.618282,232.038309 533.911344,232.337781 534.272853,232.337781 Z M536.891135,232.337781 C537.252645,232.337781 537.545706,232.038309 537.545706,231.66889 C537.545706,231.299472 537.252645,231 536.891135,231 C536.529626,231 536.236565,231.299472 536.236565,231.66889 C536.236565,232.038309 536.529626,232.337781 536.891135,232.337781 Z" id="users-unread-messages"></path>
        </g>
    </g>
</svg>