<?xml version="1.0" encoding="UTF-8"?>
<svg width="20px" height="20px" viewBox="0 0 20 19" version="1.1" xmlns="http://www.w3.org/2000/svg" xmlns:xlink="http://www.w3.org/1999/xlink">
    <!-- Generator: Sketch 43.2 (39069) - http://www.bohemiancoding.com/sketch -->
    <title>Group 2</title>
    <desc>Created with Sketch.</desc>
    <defs></defs>
    <g id="Symbols" stroke="none" stroke-width="1" fill="none" fill-rule="evenodd">
        <g id="icon-transfer-copy-3" transform="translate(0.000000, 1.000000)" fill-rule="nonzero">
            <g id="Group-2" transform="translate(0.000000, -1.000000)">
                <path d="M16.1999969,13.4662943 C16.132516,13.4662996 16.0588865,13.4663054 15.9795957,13.4663117 C13.6914848,13.466495 6.68900904,13.4671276 6.68024598,13.4680049 C6.55596562,13.4763495 6.43398348,13.5269417 6.33896116,13.6208301 L3.32613482,16.5990874 C3.32613482,16.5990874 3.3252067,13.9606019 3.32348304,13.9469272 C3.29939598,13.6775388 3.07081205,13.4662573 2.79206518,13.4662573 L1.27422723,13.4662573 C1.16028884,13.4662573 1.06765312,13.3746408 1.06765312,13.2620534 L1.06765312,4.25956311 C1.06765312,4.14693204 1.16033304,4.05535922 1.27422723,4.05535922 C1.27422723,4.05535922 2.07180946,4.05535922 6,4.05535922 C7,4.05535922 7,3 6,3 L1.27422723,3 C0.571592411,3 0,3.56503398 0,4.25956311 L0,13.2620097 C0,13.9565388 0.571592411,14.5216165 1.27422723,14.5216165 L2.25852589,14.5216165 L2.25852589,17.8730243 C2.25852589,18.0864029 2.38855179,18.2788544 2.58805446,18.3605534 C2.65408393,18.3876408 2.72347232,18.4007476 2.79224196,18.4007476 C2.93119554,18.4007476 3.06767411,18.3470971 3.16981205,18.2461748 L6.93760179,14.5216602 L16.6935375,14.5216602 C16.9513378,14.5216602 17.1664267,14.3410499 17.2163936,14.1008353 C17.2415127,14.0386095 17.2553562,13.9705157 17.2553562,13.8991533 L17.2553562,12.183806 C17.2553562,11.8890158 17.019128,11.6500015 16.7276766,11.6500015 C16.4362251,11.6500015 16.1999969,11.88906 16.1999969,12.183806 L16.1999969,13.4662943 Z" id="Combined-Shape-Copy-2" fill="#AAAAAA"></path>
                <path d="M13.2491518,10 L3.53380446,10 C3.23901429,10 3,10.2362282 3,10.5276796 C3,10.8191311 3.23905848,11.0553592 3.53380446,11.0553592 L13.2491518,11.0553592 C13.543942,11.0553592 13.7829562,10.8191311 13.7829562,10.5276796 C13.7829562,10.2362282 13.543942,10 13.2491518,10 Z" id="Shape-Copy-10" fill="#AAAAAA"></path>
                <path d="M5.57667673,6 L3.42332327,6 C3.18954564,6 3,6.23622816 3,6.52767961 C3,6.81913107 3.18958069,7.05535922 3.42332327,7.05535922 L5.57667673,7.05535922 C5.81045436,7.05535922 6,6.81913107 6,6.52767961 C6,6.23622816 5.81045436,6 5.57667673,6 Z" id="Shape-Copy-11" fill="#AAAAAA"></path>
                <path d="M18.0528443,4.40657189 L14.5319996,1.55038761 L14.5319996,2.5490399 C14.5319996,3.01883534 14.1499888,3.39634527 13.6793401,3.40259277 C11.1111388,3.42471969 9.50565664,4.1692622 8.68662787,5.6579982 C8.44049951,6.1051615 8.27075287,6.60477348 8.16070795,7.17316925 C8.6806673,6.66041864 9.22828123,6.276613 9.82759404,6.00220749 C10.8508121,5.53275156 11.7648646,5.42237324 13.6750324,5.42237324 C13.8998442,5.42237324 14.1188113,5.5134522 14.2715892,5.66379044 C14.4407994,5.82375107 14.5346635,6.04420368 14.5346635,6.27594466 L14.5346635,7.26983635 L18.0528443,4.40657189 Z M13.5319996,0.500944664 C13.5319996,0.0801071658 14.0201744,-0.152480439 14.3469967,0.112644781 L19.1607262,4.01764478 C19.4071455,4.21754533 19.4074428,4.59345552 19.1613402,4.79374569 L14.3502746,8.70922188 C14.0235861,8.97509668 13.5346635,8.74262721 13.5346635,8.32142085 L13.5346635,6.42258541 C11.8582947,6.42777422 11.0756943,6.52980231 10.2442501,6.91127161 C9.39644624,7.29945309 8.65570895,7.96793988 7.90981445,9.0348193 C7.62508105,9.44208361 6.98499779,9.2296537 7.00026849,8.7329605 C7.04408376,7.30783026 7.2656148,6.16586085 7.8105178,5.17588707 C8.80994595,3.35924189 10.7109073,2.45631969 13.5319996,2.40449213 L13.5319996,0.500944664 Z" id="Shape-Copy-12" fill="#15B65A"></path>
            </g>
        </g>
    </g>
</svg>