<?xml version="1.0" encoding="UTF-8"?>
<svg width="15px" height="15px" viewBox="0 0 15 15" version="1.1" xmlns="http://www.w3.org/2000/svg" xmlns:xlink="http://www.w3.org/1999/xlink">
    <!-- Generator: Sketch 43.2 (39069) - http://www.bohemiancoding.com/sketch -->
    <title>1499265428_link5</title>
    <desc>Created with Sketch.</desc>
    <defs></defs>
    <g id="Page-1" stroke="none" stroke-width="1" fill="none" fill-rule="evenodd">
        <g id="group-chat" transform="translate(-358.000000, -743.000000)" fill-rule="nonzero" fill="#1394E5">
            <g id="Group-3" transform="translate(335.000000, 178.000000)">
                <g id="1499265428_link5" transform="translate(23.000000, 565.000000)">
                    <path d="M5.493375,11.9008125 L4.734375,12.6545625 C4.0764375,13.3066875 3.006375,13.30725 2.3488125,12.6545625 C2.0326875,12.340875 1.8590625,11.92425 1.8590625,11.481375 C1.8590625,11.0385 2.032875,10.6216875 2.348625,10.308 L5.142375,7.5361875 C5.721375,6.9620625 6.8105625,6.116625 7.6044375,6.9039375 C7.96875,7.2658125 8.557125,7.263375 8.9188125,6.89925 C9.2806875,6.535125 9.2784375,5.9465625 8.914125,5.5850625 C7.5646875,4.2459375 5.57025,4.4934375 3.83325,6.2169375 L1.0393125,8.9889375 C0.369,9.654375 0,10.539375 0,11.481375 C0,12.423375 0.369,13.3081875 1.0395,13.973625 C1.7293125,14.658 2.635125,15 3.5413125,15 C4.4476875,15 5.353875,14.658 6.0440625,13.97325 L6.803625,13.2193125 C7.16775,12.8578125 7.1698125,12.2694375 6.8079375,11.905125 C6.446625,11.5411875 5.8576875,11.539125 5.493375,11.9008125 Z M13.960125,1.13325 C12.51075,-0.304875 10.48425,-0.382875 9.1425,0.948375 L8.196375,1.8875625 C7.8320625,2.24925 7.8298125,2.8374375 8.1916875,3.20175 C8.5535625,3.5660625 9.1419375,3.568125 9.50625,3.2064375 L10.452,2.2678125 C11.1470625,1.577625 12.0571875,1.86375 12.6508125,2.4526875 C12.9673125,2.766375 13.141125,3.1831875 13.141125,3.6260625 C13.141125,4.069125 12.967125,4.4859375 12.6511875,4.799625 L9.6705,7.7565 C8.3075625,9.10875 7.6681875,8.4740625 7.395375,8.2033125 C7.0310625,7.841625 6.442875,7.843875 6.081,8.208 C5.719125,8.572125 5.721375,9.1606875 6.0856875,9.5221875 C6.711375,10.1431875 7.4255625,10.4510625 8.17425,10.4510625 C9.0909375,10.4510625 10.0591875,9.9894375 10.9798125,9.075375 L13.9605,6.1185 C14.630625,5.4530625 15,4.567875 15,3.625875 C15,2.68425 14.630625,1.7990625 13.960125,1.13325 Z" id="Shape"></path>
                </g>
            </g>
        </g>
    </g>
</svg>