<svg width="77px" height="52px" id="Layer_1" data-name="Layer 1" xmlns="http://www.w3.org/2000/svg" viewBox="0 0 76.42 37.01"><defs><style>.cls-1,.cls-3{fill:#26d588;}.cls-2{font-size:16.19px;fill:#fff;font-family:Aharoni-Bold, Aharoni;font-weight:700;}.cls-3{font-size:19.34px;font-family:ArialRoundedMTBold, Arial Rounded MT Bold;}</style></defs><title>chat icon updated</title><circle class="cls-1" cx="17.33" cy="16.22" r="1.26"/><circle class="cls-1" cx="24.9" cy="16.22" r="1.26"/><circle class="cls-1" cx="9.98" cy="16.22" r="1.26"/><path class="cls-1" d="M2.33,41.79A1.75,1.75,0,0,1,.9,39a29.16,29.16,0,0,0,3-5.93c-1.71-1.77-1.71-4.22-1.71-5.76V15.14c0-4.53,2.56-8.09,5.82-8.09H26.65c3.26,0,5.82,3.56,5.82,8.09a1.57,1.57,0,0,1-3.14,0c0-2.83-1.41-5-2.68-5H8c-1.26,0-2.68,2.12-2.68,5V27.33c0,2,.18,3.16,1.17,3.88.8.57-.94,3.77-1.4,5.21,2.75-2.23,4.73-4.14,5.22-4.14H26.65c1.27,0,2.68-2.12,2.68-5V25a1.57,1.57,0,0,1,3.14,0v2.31c0,4.53-2.56,8.09-5.82,8.09H10.73c-.74.51-3,2.29-7.26,5.95A1.75,1.75,0,0,1,2.33,41.79Zm1.15-1,0,0Z" transform="translate(-0.58 -5.06)"/><text class="cls-2" transform="translate(35.83 13.49)">CHAT</text><text class="cls-3" transform="translate(36.04 31.15)">elite</text></svg>