<?xml version="1.0" encoding="UTF-8"?>
<svg width="27px" height="31px" viewBox="0 0 27 31" version="1.1" xmlns="http://www.w3.org/2000/svg" xmlns:xlink="http://www.w3.org/1999/xlink">
    <!-- Generator: Sketch 46.2 (44496) - http://www.bohemiancoding.com/sketch -->
    <title>smartphone</title>
    <desc>Created with Sketch.</desc>
    <defs></defs>
    <g id="Page-1" stroke="none" stroke-width="1" fill="none" fill-rule="evenodd">
        <g id="Add-user-in-current-group-Copy" transform="translate(-126.000000, -17.000000)" fill-rule="nonzero" fill="#FFFFFF">
            <g id="smartphone" transform="translate(126.000000, 17.000000)">
                <path d="M9,25.5 C7.897,25.5 7,26.397 7,27.5 C7,28.603 7.897,29.5 9,29.5 C10.103,29.5 11,28.603 11,27.5 C11,26.397 10.103,25.5 9,25.5 Z M9,28.5 C8.4485,28.5 8,28.0515 8,27.5 C8,26.9485 8.4485,26.5 9,26.5 C9.5515,26.5 10,26.9485 10,27.5 C10,28.0515 9.5515,28.5 9,28.5 Z" id="Shape"></path>
                <path d="M6.5,2.5 L8.5,2.5 C8.776,2.5 9,2.2765 9,2 C9,1.7235 8.776,1.5 8.5,1.5 L6.5,1.5 C6.224,1.5 6,1.7235 6,2 C6,2.2765 6.224,2.5 6.5,2.5 Z" id="Shape"></path>
                <path d="M10.3333333,2.5 L10.6666667,2.5 C10.8506667,2.5 11,2.2765 11,2 C11,1.7235 10.8506667,1.5 10.6666667,1.5 L10.3333333,1.5 C10.1493333,1.5 10,1.7235 10,2 C10,2.2765 10.1493333,2.5 10.3333333,2.5 Z" id="Shape"></path>
                <path d="M27,6.2 L17.6538462,6.2 L17.6538462,2.27591667 C17.6538462,1.02145 16.6278462,0 15.3666346,0 L2.28721154,0 C1.026,0 0,1.02145 0,2.27591667 L0,28.7235667 C0,29.97855 1.026,31 2.28721154,31 L15.3661154,31 C16.6278462,31 17.6538462,29.97855 17.6538462,28.7240833 L17.6538462,17.05 L27,17.05 L27,6.2 Z M2.28721154,1.03333333 L15.3661154,1.03333333 C16.0551346,1.03333333 16.6153846,1.59081667 16.6153846,2.27591667 L16.6153846,3.1 L1.03846154,3.1 L1.03846154,2.27591667 C1.03846154,1.59081667 1.59871154,1.03333333 2.28721154,1.03333333 Z M15.3666346,29.9666667 L2.28721154,29.9666667 C1.59871154,29.9666667 1.03846154,29.4091833 1.03846154,28.7240833 L1.03846154,24.8 L16.6153846,24.8 L16.6153846,28.7240833 C16.6153846,29.4091833 16.0551346,29.9666667 15.3666346,29.9666667 Z M16.6153846,23.7666667 L1.03846154,23.7666667 L1.03846154,4.13333333 L16.6153846,4.13333333 L16.6153846,6.2 L7.26923077,6.2 L7.26923077,17.05 L9.34615385,17.05 L9.34615385,20.6666667 L14.1921346,17.05 L16.6153846,17.05 L16.6153846,23.7666667 Z M25.9615385,16.0166667 L17.6538462,16.0166667 L13.8463269,16.0166667 L10.3846154,18.6 L10.3846154,16.0166667 L8.30769231,16.0166667 L8.30769231,7.23333333 L17.6538462,7.23333333 L25.9615385,7.23333333 L25.9615385,16.0166667 Z" id="Shape"></path>
                <path d="M10.6666667,11 L17.3333333,11 C17.7013333,11 18,10.7765 18,10.5 C18,10.2235 17.7013333,10 17.3333333,10 L10.6666667,10 C10.2986667,10 10,10.2235 10,10.5 C10,10.7765 10.2986667,11 10.6666667,11 Z" id="Shape"></path>
                <path d="M10,13.5 C10,13.7765 10.224,14 10.5,14 L22.5,14 C22.776,14 23,13.7765 23,13.5 C23,13.2235 22.776,13 22.5,13 L10.5,13 C10.224,13 10,13.2235 10,13.5 Z" id="Shape"></path>
            </g>
        </g>
    </g>
</svg>