<svg xmlns="http://www.w3.org/2000/svg" xmlns:xlink="http://www.w3.org/1999/xlink" width="1481" height="504" viewBox="0 0 1481 504"><title>Artboard 1</title><defs><linearGradient x1="58.917%" y1="9.59%" x2="90.81%" y2="60.851%" id="a"><stop stop-color="#FF177B" offset="0%"/><stop stop-color="#FFEC73" offset="100%"/></linearGradient><linearGradient x1="37.103%" y1="-44.035%" x2="0%" y2="101.06%" id="c"><stop stop-color="#064AA2" offset="0%"/><stop stop-color="#63FFD4" offset="100%"/></linearGradient><path id="b" d="M139 127L5 0C1.874.726 0 3.065 0 7v243c0 3.34 1.346 5.325 3 6l136-129z"/><path id="e" d="M6.534 128.785l77.452-42.547 34.21-18.956 56.324-30.337L137.022.508 1.024 129.524c1.515.488 4.187.22 6.27-.808"/><linearGradient x1="78.645%" y1="50%" x2="2.495%" y2="100%" id="f"><stop stop-color="#FF4521" offset="0%"/><stop stop-color="#8A33DB" offset="100%"/></linearGradient><linearGradient x1="0%" y1="-24.186%" x2="64.224%" y2="100%" id="i"><stop stop-color="#00A3B5" offset="0%"/><stop stop-color="#D6FFA1" offset="100%"/></linearGradient><path id="h" d="M8.13 2.147C5.55.765 2.985.37.912.93l134.11 127.183 37.104-35.11-55.927-30.98-84.54-46.84L8.13 2.146z"/></defs><g transform="translate(2 2)" fill="none" fill-rule="evenodd"><rect stroke="#FFF" stroke-width="2" fill="#000" width="1477" height="500" rx="60" fill-opacity=".7"/><path d="M120.18 62.023S18.273 5.563 12.29 2.245C6.293-1.072.33.94.33 7.873v243.513c0 5.19 4.26 7.44 9.47 4.562l110.38-61.162s14.288-7.912 21.432-11.87l34.494-19.1s47.453-26.297 53.766-29.784c6.304-3.496 5.696-8.287.38-11.047-5.33-2.75-54.146-29.983-54.146-29.983l-55.927-30.98z" fill="url(#a)" transform="translate(60 178)"/><g transform="translate(60 179)"><mask id="d" fill="#fff"><use xlink:href="#b"/></mask><use fill="url(#c)" xlink:href="#b"/><path d="M176 92l-56-31c-.196.45-102.062-56.113-108-59C5.963-1.76 0 .257 0 7v244c0 5.36 4.26 7.617 9 5 5.663-3.15 110.804-61.542 111-62l56-31c-.29.432 47.143-25.914 53-29 6.755-3.91 6.148-8.71 1-11-5.493-3.228-54.29-30.513-54-31" id="Fill-1" mask="url(#d)"/></g><g transform="translate(61.983 305.504)"><mask id="g" fill="#fff"><use xlink:href="#e"/></mask><path d="M118.017-65.504c-.197.45-102.062-56.113-108-59-6.038-3.76-12-1.743-12 5v244c0 5.362 4.26 7.617 9 5 5.663-3.15 110.803-61.542 111-62l56-31c-.29.432 47.142-25.914 53-29 6.755-3.91 6.148-8.71 1-11-5.494-3.228-54.29-30.512-54-31l-56-31z" id="Fill-7" fill="url(#f)" mask="url(#g)"/></g><g transform="translate(63.98 178)"><mask id="j" fill="#fff"><use xlink:href="#h"/></mask><use fill="url(#i)" xlink:href="#h"/><path d="M172.02 93l-56-31c-.195.45-102.06-56.113-108-59-6.036-3.76-12-1.743-12 5v244c0 5.36 4.26 7.617 9 5 5.664-3.15 110.805-61.542 111-62l56-31c-.29.432 47.144-25.914 53-29 6.756-3.91 6.15-8.71 1-11-5.493-3.228-54.29-30.513-54-31" id="Fill-4" mask="url(#j)"/></g><g fill="#FFF"><path d="M1011.615 348.87l-11.073 10.51c-2.56 1.415-5.105 3.058-7.644 4.224-7.69 3.513-15.512 4.396-22.463 4.396-7.396 0-18.99-.483-30.82-9.09C923.184 347.27 916 327.256 916 309.817 916 273.71 945.22 256 969.056 256c8.33 0 16.885 2.098 23.842 6.522 11.568 7.695 14.56 17.694 16.22 23.05l-54.43 22.118-17.824 1.394c5.77 29.606 25.68 46.825 47.685 46.825 10.99 0 19.148-3.61 26.633-7.33 0 0 1.503-.787.432.29zm-33.256-59.392c4.368-1.626 6.64-3.03 6.64-6.295 0-9.365-10.344-20.183-22.69-20.183-9.142 0-26.31 7.295-26.31 32.626 0 3.953.46 8.164.692 12.374l41.667-18.522z" id="Fill-1"/><path d="M898.026 347.603c0 9.026 1.6 10.43 9.184 11.14 3.953.467 7.892.674 11.79 1.142L910.465 365h-40.668c5.334-6.967 6.25-7.662 6.25-12.302v-5.184l-.09-138.13H858L875.288 201h33.003c-7.152 4.172-9.293 6.712-10.21 14.843l-.054 131.76" id="Fill-2"/><path d="M834.93 267.398c5.29 4.384 16.33 13.69 16.33 31.34 0 17.202-9.62 25.31-19.32 32.985-2.978 3.022-6.46 6.3-6.46 11.365 0 5.142 3.482 7.93 5.988 10.008l8.322 6.478c10.118 8.61 19.342 16.506 19.342 32.544 0 21.848-20.974 43.882-60.606 43.882C765.14 436 749 419.97 749 402.78c0-8.363 4.13-20.21 17.758-28.325 14.283-8.803 33.632-9.98 43.995-10.67-3.236-4.21-6.93-8.624-6.93-15.824 0-3.936 1.175-6.283 2.308-9.05-2.518.24-5.058.488-7.365.488-24.436 0-38.247-18.378-38.247-36.49 0-10.682 4.834-22.535 14.76-31.126C788.414 260.88 804.076 259 816.523 259H864l-14.76 8.398h-14.31zm-16.21 102.854c-1.906-.252-3.05-.252-5.348-.252-2.106 0-14.653.463-24.37 3.784C783.86 375.697 769 381.352 769 398.15c0 16.762 16.043 28.85 40.862 28.85 22.3 0 34.138-10.883 34.138-25.536 0-12.06-7.66-18.423-25.28-31.212zm6.515-44.737c5.303-5.345 5.765-12.73 5.765-16.922C831 291.94 821.163 266 802.094 266c-5.948 0-12.392 3.012-16.05 7.672-3.882 4.824-5.044 11.082-5.044 17.1 0 15.51 8.96 41.228 28.668 41.228 5.75 0 11.937-2.82 15.567-6.485z" id="Fill-3"/><path d="M691.337 368c-36.7 0-56.337-28.95-56.337-55.165C635 282.207 659.686 256 694.8 256c33.942 0 55.2 26.92 55.2 55.186C750 338.792 728.988 368 691.337 368zm28.7-18.935c5.604-7.507 6.963-16.876 6.963-26.01 0-20.658-9.72-60.055-38.453-60.055-7.642 0-15.338 3.024-20.885 7.96-9.05 8.208-10.662 18.523-10.662 28.643C657 322.777 668.314 361 696.394 361c9.062 0 18.31-4.442 23.644-11.935z" id="Fill-4"/><path d="M568.333 368C531.61 368 512 339.05 512 312.835 512 282.207 536.703 256 571.817 256 605.754 256 627 282.92 627 311.186 627 338.792 606.007 368 568.333 368zm28.716-18.935c5.563-7.507 6.95-16.876 6.95-26.01 0-20.658-9.754-60.055-38.472-60.055-7.673 0-15.29 3.024-20.854 7.96-9.067 8.208-10.674 18.523-10.674 28.643C534 322.777 545.368 361 573.413 361c9.046 0 18.285-4.442 23.636-11.935z" id="Fill-5"/><path d="M496.775 361.08l-31.086 7.165c-12.596 1.998-23.906 3.755-35.883 3.755-59.96 0-82.807-44.418-82.807-79.183C347 250.363 379.37 211 434.81 211c11.728 0 23.01 1.736 33.29 4.557 16.293 4.606 23.913 10.284 28.675 13.61l-18.058 17.26-7.613 1.716 5.428-8.706c-7.352-7.227-20.868-20.567-46.52-20.567-34.294 0-60.165 26.237-60.165 64.542 0 41.14 29.54 79.84 76.918 79.84 13.922 0 21.088-2.815 27.596-5.443v-35.27l-32.824 1.778 17.398-9.406H505l-5.635 5.457c-1.518 1.3-1.724 1.742-2.15 3.484-.227 1.992-.44 8.326-.44 10.553v26.673" id="Fill-6"/><path d="M1078.702 349.94V409H1067V258.714h11.702v17.117c7.624-11.062 21.554-19.83 37.733-19.83 29.02 0 48.565 22.064 48.565 56.992 0 34.694-19.545 57.22-48.565 57.22-15.274 0-28.957-7.897-37.733-20.272zM1153 313.892c0-26.602-13.742-46.892-38.108-46.892-15.132 0-29.603 12-35.892 22.464v48.614c6.29 10.485 20.76 22.922 35.892 22.922 24.366 0 38.108-20.464 38.108-47.108z" id="Fill-7"/><path d="M1181 217h12v151h-12V217zM1323.463 398.6c2.503 1.12 6.774 1.81 9.482 1.81 7.158 0 12.142-2.936 16.62-13.3l8.535-19.39L1312 258h13.054l39.545 95.08 39.16-95.08H1417l-56.226 132.745C1354.94 404.423 1345.76 411 1333.15 411c-3.784 0-8.775-.674-11.696-1.574l2.01-10.825M1290.438 367.85c-.787-3.793-1.38-7.137-1.814-9.93-.358-2.783-.565-5.63-.565-8.525-4.035 5.935-9.75 10.876-17.053 14.766-7.308 3.92-14.252 5.84-23.774 5.84-11.466 0-20.368-2.826-26.718-8.56-6.33-5.73-9.515-13.49-9.515-23.31 0-9.804 4.613-17.764 13.81-23.852 9.2-6.115 21.086-9.155 35.8-9.155h27.45V291.53c0-7.828-2.663-13.985-7.98-18.45-5.336-4.47-12.824-6.73-22.532-6.73-8.874 0-16.072 2.067-21.554 6.09-5.433 4.103-8.17 9.19-8.17 15.318h-12.046l-.248-.587c-.434-8.264 3.337-15.512 11.356-21.772 7.985-6.254 18.444-9.398 31.317-9.398 12.832 0 23.216 3.096 31.042 9.273 7.82 6.115 11.742 14.953 11.742 26.507v53.966c0 3.877.186 7.622.67 11.27.495 3.656 1.288 7.304 2.343 10.835h-13.562zm-41.79-7.85c9.99 0 17.17-2.25 24.506-6.702 7.29-4.425 12.25-10.196 14.846-17.184V315h-27.557c-10.526 0-19.24 2.348-26.096 7.084-6.868 4.723-10.347 10.44-10.347 17.086 0 6.272 2.205 11.287 6.586 15.086 4.395 3.84 10.403 5.744 18.063 5.744z"/></g><g fill="#FFF"><path d="M343.042 115.31c0-21.54 17.2-35.395 38.59-35.395 14.335 0 23.71 6.364 29.552 14.157l-10.47 5.646c-3.968-5.133-10.92-9.126-19.082-9.126-14.548 0-25.357 10.254-25.357 24.72 0 14.252 10.81 24.718 25.357 24.718 7.502 0 14.115-3.18 17.42-6.153V123.31h-22.05v-10.57h34.844v25.547c-7.165 7.492-17.532 12.516-30.214 12.516-21.39 0-38.59-14.048-38.59-35.492M428.525 149.76V80.96h51.08V91.59h-38v17.734h37.22v10.626h-37.22v19.184h38v10.627h-51.08M514.345 149.76V91.59h-22.23V80.958h57.337V91.59h-22.23v58.17h-12.877M595.32 80.958h12.51v68.803h-12.51V80.96zM643.618 149.76V91.59h-22.236V80.958h57.336V91.59h-22.222v58.17h-12.878M721.46 115.362c0-20.448 15.733-35.447 38.053-35.447 22.195 0 38.047 15 38.047 35.447 0 20.442-15.852 35.44-38.047 35.44-22.32 0-38.054-14.998-38.054-35.44zm62.548-.524c0-14.03-9.64-24.498-24.495-24.498-14.965 0-24.5 10.467-24.5 24.498 0 13.923 9.535 24.498 24.5 24.498 14.855 0 24.495-10.575 24.495-24.498zM863.312 149.76l-38.29-49.2v49.2h-12.868V80.96h13.204l37.514 47.66v-47.66h12.873v68.803h-12.433"/></g></g></svg>