<?xml version="1.0" encoding="UTF-8"?>
<svg width="17px" height="24px" viewBox="0 0 17 24" version="1.1" xmlns="http://www.w3.org/2000/svg" xmlns:xlink="http://www.w3.org/1999/xlink">
    <!-- Generator: Sketch 43.2 (39069) - http://www.bohemiancoding.com/sketch -->
    <title>icon-recent-chat-active</title>
    <desc>Created with Sketch.</desc>
    <defs></defs>
    <g id="Page-1" stroke="none" stroke-width="1" fill="none" fill-rule="evenodd">
        <g id="group-chat" transform="translate(-1660.000000, -193.000000)" fill="#BEBEBE">
            <g id="Group" transform="translate(1421.000000, 178.000000)">
                <g id="chat-tabs-bar">
                    <g id="tab-recent-chats-4-copy-3" transform="translate(212.000000, 0.000000)">
                        <g id="icon-recent-chat-active" transform="translate(19.428571, 14.000000)">
                            <path d="M3.65032091,18.6379995 C3.75261339,18.740292 3.83604154,18.8056529 3.90060537,18.8340822 C3.96516919,18.8625116 4.12319115,18.8579283 4.37467123,18.8203325 C4.62615131,18.7827367 4.9253236,18.7160473 5.2721881,18.6202644 C5.6190526,18.5244814 5.95681706,18.4331488 6.28548147,18.3462667 C6.61414588,18.2593845 6.93590222,18.170111 7.2507505,18.0784463 C7.56559878,17.9867817 7.76407276,17.9277974 7.84617244,17.9014936 C7.9192385,17.8842235 8.06550346,17.8588496 8.28496733,17.8253721 C8.50443119,17.7918946 8.68709634,17.7487192 8.83296275,17.6958459 C8.97882917,17.6429726 9.09693049,17.5713679 9.18726671,17.4810317 C9.32277103,17.3455274 9.39231663,17.0853458 9.39590351,16.7004869 C9.39949039,16.3156281 9.3686698,15.9279794 9.30344174,15.537541 C9.23821368,15.1471026 9.20287627,14.7639707 9.19742953,14.3881455 C9.19198279,14.0123203 9.24797796,13.7656891 9.36541504,13.648252 C9.42865039,13.5850167 9.51945157,13.5267631 9.63781858,13.4734913 C9.7561856,13.4202195 9.85641894,13.3804317 9.93851862,13.3541279 C10.0206183,13.3278242 10.1415758,13.2952101 10.3013912,13.2562859 C10.4612066,13.2173616 10.5639641,13.1936483 10.6096636,13.1851461 C12.0154545,12.8022799 13.3714941,12.6226039 14.6777823,12.6461179 C15.9840706,12.6696318 17.3504723,12.8887636 18.7769874,13.3035131 C18.8229526,13.3133438 18.9264407,13.3400461 19.0874517,13.3836201 C19.2484628,13.427194 19.3704166,13.4633285 19.4533134,13.4920235 C19.5362102,13.5207186 19.6376391,13.563429 19.7576003,13.6201548 C19.8775615,13.6768806 19.9700897,13.7377912 20.0351849,13.8028864 C20.156076,13.9237775 20.219245,14.1721357 20.2246917,14.5479609 C20.2301384,14.9237861 20.2058938,15.3060544 20.1519578,15.6947659 C20.0980217,16.0834773 20.0784267,16.4703953 20.0931728,16.8555198 C20.1079189,17.2406444 20.1850368,17.5029515 20.3245265,17.6424413 C20.4175197,17.7354344 20.5377465,17.8104932 20.6852071,17.8676176 C20.8326677,17.9247419 21.0166613,17.9732312 21.237188,18.0130854 C21.4577146,18.0529396 21.6047767,18.0825646 21.6783741,18.1019603 C21.7612709,18.1306554 21.9615383,18.1954185 22.2791764,18.2962496 C22.5968144,18.3970808 22.9212942,18.49572 23.2526155,18.5921671 C23.5839369,18.6886143 23.9244911,18.7897776 24.2742783,18.895657 C24.6240654,19.0015363 24.9252968,19.0769272 25.1779725,19.1218296 C25.4306483,19.1667321 25.5888695,19.1758985 25.6526362,19.149329 C25.716403,19.1227596 25.7979713,19.0597899 25.8973411,18.9604201 C26.3309549,18.5268062 26.6848603,17.9683159 26.9590573,17.284949 C27.1793183,16.6741167 27.1012704,15.8733792 26.7249138,14.8827363 C26.3485572,13.8920934 25.8953484,13.1317414 25.3652873,12.6016804 C25.2164983,12.4528913 25.0471179,12.306095 24.8571461,12.1612914 C24.6671744,12.0164877 24.5027758,11.8972572 24.3639502,11.8035998 C24.2251247,11.7099424 24.0310347,11.597155 23.7816802,11.4652375 C23.5323257,11.3333201 23.3499926,11.2413233 23.2346811,11.1892471 C23.1193696,11.1371709 22.9094707,11.0401923 22.6049846,10.8983113 C22.3004984,10.7564304 22.1113237,10.6666255 22.0374606,10.6288969 C19.9703554,9.64582629 17.5022504,9.13350038 14.6331456,9.09191915 C11.7640408,9.05033792 9.30975199,9.49132479 7.27027907,10.4148797 C7.1974787,10.4504828 7.01082814,10.5348409 6.71032738,10.667954 C6.40982661,10.8010671 6.20265113,10.8920011 6.08880093,10.9407561 C5.97495072,10.9895111 5.79520822,11.0762604 5.54957342,11.2010041 C5.30393863,11.3257478 5.11303695,11.4329556 4.97686839,11.5226276 C4.84069982,11.6122996 4.6796888,11.726814 4.49383533,11.8661709 C4.30798185,12.0055278 4.14278613,12.1474752 3.99824819,12.2920132 C3.48333176,12.8069296 3.05197633,13.5544618 2.7041819,14.5346097 C2.35638746,15.5147577 2.3015215,16.313569 2.539584,16.9310436 C2.83370809,17.622647 3.20395372,18.1916323 3.65032091,18.6379995 Z" id="Path" transform="translate(14.730988, 14.024077) rotate(-120.000000) translate(-14.730988, -14.024077) "></path>
                        </g>
                    </g>
                </g>
            </g>
        </g>
    </g>
</svg>