<?xml version="1.0" encoding="UTF-8" standalone="no"?>
<svg width="16px" height="17px" viewBox="0 0 16 17" version="1.1" xmlns="http://www.w3.org/2000/svg" xmlns:xlink="http://www.w3.org/1999/xlink">
    <!-- Generator: Sketch 48.2 (47327) - http://www.bohemiancoding.com/sketch -->
    <title>Group 2</title>
    <desc>Created with Sketch.</desc>
    <defs></defs>
    <g id="pole-questions-copy-2" stroke="none" stroke-width="1" fill="none" fill-rule="evenodd" transform="translate(-1311.000000, -617.000000)">
        <g id="unread-messages" transform="translate(1311.000000, 617.000000)" fill="#486A93">
            <g id="Group-2">
                <path d="M5.70952234,15.6672908 C5.0464016,16.0468754 4.32753504,16.3372668 3.55292267,16.5384648 C3.30784209,16.5997349 3.01510696,16.6541973 2.67471727,16.7018518 C2.59302375,16.7086596 2.51813802,16.6848324 2.45006008,16.63037 C2.38198214,16.5759077 2.33773148,16.5010219 2.3173081,16.4057128 L2.30709641,16.3393368 L2.31220225,16.2729608 L2.33262563,16.2116907 L2.35815486,16.1606322 C2.36496265,16.1470166 2.37687629,16.1282952 2.39389578,16.1044679 C2.41091526,16.0806407 2.42453085,16.0636212 2.43474254,16.0534095 C2.44495423,16.0431978 2.46027177,16.0261783 2.48069515,16.002351 C2.50111853,15.9785237 2.51473412,15.9632062 2.52154191,15.9563984 C2.55558088,15.9155517 2.63387051,15.8304542 2.7564108,15.7011062 C2.87895109,15.5717581 2.96745241,15.4713431 3.02191476,15.3998613 C3.07637711,15.3283794 3.15296479,15.2296664 3.2516778,15.1037222 C3.35039081,14.9777781 3.43548823,14.846728 3.50697006,14.7105722 C3.51853264,14.6885482 3.53005068,14.666168 3.54152419,14.6434316 C1.40542425,13.2070412 0,10.7676478 0,8 C0,3.581722 3.581722,0 8,0 C12.418278,0 16,3.581722 16,8 C16,12.418278 12.418278,16 8,16 C7.20400407,16 6.43516069,15.8837461 5.70952234,15.6672908 Z M5.6545706,13.337781 C6.01607997,13.337781 6.30914121,13.0383085 6.30914121,12.6688905 C6.30914121,12.2994725 6.01607997,12 5.6545706,12 C5.29306124,12 5,12.2994725 5,12.6688905 C5,13.0383085 5.29306124,13.337781 5.6545706,13.337781 Z M8.27285302,13.337781 C8.63436238,13.337781 8.92742363,13.0383085 8.92742363,12.6688905 C8.92742363,12.2994725 8.63436238,12 8.27285302,12 C7.91134366,12 7.61828242,12.2994725 7.61828242,12.6688905 C7.61828242,13.0383085 7.91134366,13.337781 8.27285302,13.337781 Z M10.8911354,13.337781 C11.2526448,13.337781 11.545706,13.0383085 11.545706,12.6688905 C11.545706,12.2994725 11.2526448,12 10.8911354,12 C10.5296261,12 10.2365648,12.2994725 10.2365648,12.6688905 C10.2365648,13.0383085 10.5296261,13.337781 10.8911354,13.337781 Z" id="Combined-Shape"></path>
            </g>
        </g>
    </g>
</svg>